<?xml version="1.0" encoding="utf-8"?>
<!-- Generator: Adobe Illustrator 27.5.0, SVG Export Plug-In . SVG Version: 6.00 Build 0)  -->
<svg version="1.1" id="Layer_1" xmlns="http://www.w3.org/2000/svg" xmlns:xlink="http://www.w3.org/1999/xlink" x="0px" y="0px"
	 viewBox="0 0 2838.775 2000" style="enable-background:new 0 0 2838.775 2000;" xml:space="preserve">
<rect style="fill:#FFFFFF;" width="2838.775" height="2000"/>
<g>
	<path style="fill:#ECF4FA;" d="M1784.378,458.325c-0.168-0.721-0.367-1.403-0.527-2.134
		c-77.367-353.452-661.137-280.404-661.137-280.404c-149.893,14.241-261.211,49.235-343.743,91.861
		c-130.339,67.317-216.223,190.587-232.952,329.095c-9.791,81.063-49.936,202.488-179.167,246.354
		c-251.716,85.445-163.355,280.616-138.68,348.977c21.491,59.538,142.91,129.979-33.929,284.028s18.506,417.859,18.506,417.859
		l1571.629,2.337V458.325z"/>
	<path style="fill:#ECF4FA;" d="M2541.943,915.692v981.732l86.115,0.129C2689.945,1897.668,2770.332,1216.354,2541.943,915.692z"/>
</g>
<g>
	<g style="opacity:0.5;">
		
			<rect x="1784.378" y="209.485" transform="matrix(-1 -1.224647e-16 1.224647e-16 -1 4326.3213 2117.4907)" style="fill:#9BC1F9;" width="757.565" height="1698.521"/>
		<polygon style="fill:#C5DDF9;" points="2515.17,234.212 2515.17,1898.488 1816.574,1902.006 1811.434,234.212 		"/>
		<polygon style="fill:#FFFFFF;" points="2215.23,1896.317 2131.66,1896.317 1853.717,234.212 1937.287,234.212 		"/>
		<polygon style="fill:#FFFFFF;" points="2103.361,234.212 2275.616,234.212 2515.17,1653.868 2515.17,1881.378 2381.305,1881.378 
					"/>
	</g>
	<g>
		<g>
			<path style="fill:#327F6B;" d="M1764.728,226.149c-0.808,1.123-2.023,2.685-3.802,4.837c-0.023,0.031-0.047,0.062-0.07,0.093
				c0.07,0.255,22.563,81.716,4.848,87.902c-16.245,5.673-17.613-54.052-11.026-79.086c-3.601,5.563-6.823,11.405-9.494,17.51
				c-4.565,10.436-7.689,23.9-9.749,38.912c3.302,5.409,23.476,39.398,13.373,46.392c-8.196,5.674-13.565-16.671-15.046-31.434
				c-1.185,13.343-1.698,27.448-1.756,41.452c10.917,2.675,43.879,12.141,44.5,29.055c0.694,18.901-27.641,13.326-44.491-21.73
				c0.094,13.925,0.604,27.588,1.311,40.132c7.85,7.078,40.115,37.514,34.914,55.101c-5.269,17.812-25.508-2.59-34.047-41.497
				c1.586,22.279,3.599,39.193,4.489,44.535c0.294,1.76,0.622,4.024,0.973,6.691l0,0c0.128,0.976,0.261,2.01,0.395,3.089l0,0
				c0,0,50.157,67.585,35.794,83.145c-10.183,11.032-25.426-34.118-33.436-61.334c2.773,28.894,5.207,66.58,2.883,78.204
				l-0.182-0.037c1.773,26.055,2.989,73.427-11.368,75.82c-19.854,3.309,0-49.636,0-49.636s-24.229,9.67-26.472,0
				c-3.756-16.189,30.184-38.985,35.657-42.542c-0.063-14.389-1.372-34.784-3.006-53.304c-1.826,39.711-11.748,51.52-15.613,52.828
				c-4.788,1.619-14.645-8.097-11.265-38.793c2.625-23.849,17.23-39.27,23.618-44.966c-0.438-3.389-0.857-6.31-1.242-8.622
				c-0.854-5.124-2.731-20.833-4.28-41.723c-3.881,32.655-13.063,59.371-21.343,42.824c-8.071-16.13,13.005-46.991,20.401-57.014
				c-0.855-14.564-1.459-30.755-1.461-47.197c-6.159,16.143-33.164,46.494-36.534,29.125c-3.313-17.08,30.209-34.851,36.594-38.067
				c0.193-14.074,0.872-28.137,2.25-41.337c-7.495,13.307-30.361,40.567-33.075,25.852c-3.098-16.801,35.236-42.592,35.236-42.592
				s0.023,0.025,0.056,0.064c2.065-12.497,4.949-23.711,8.891-32.719c2.55-5.828,5.585-11.421,8.967-16.762
				c-14.171,9.612-35.853,18.161-34.979,8.131c0.946-10.885,34.296-19.689,44.93-22.225c0.363-0.523,0.607-0.742,0.761-0.736
				c3.81-4.688,7.823-9.113,11.911-13.273h4.648C1773.699,215.841,1769.08,220.825,1764.728,226.149z"/>
			<path style="fill:#327F6B;" d="M1793.584,254.49c-10.58,5.963-6.708-23.803-3.19-43.275h10.339
				C1802.641,227.491,1803.097,249.128,1793.584,254.49z"/>
		</g>
		<g>
			<path style="fill:#327F6B;" d="M1779.749,252.818c-14.057-1.968-1.422-23.189,18.387-41.603h20.748
				C1808.423,230.376,1792.516,254.605,1779.749,252.818z"/>
			<path style="fill:#327F6B;" d="M1835.941,211.215h21.267c10.907,13.601,19.146,30.348,11.732,45.369
				C1858.475,277.792,1844.365,239.72,1835.941,211.215z"/>
			<path style="fill:#3C8F7C;" d="M1822.934,211.215h3.522c-0.904,6.294-1.884,13.277-2.908,20.836
				c8.514,16.795,51.987,105.421,31.271,124.435c-22.909,21.026-31.069-86.616-31.069-86.616l-1.207-30.318
				c-3.469,26.15-7.301,58.033-10.319,90.947c7.881,6.491,40.467,35.097,26.904,53.919c-12.616,17.508-23.764-30.902-27.361-48.856
				c-1.936,21.775-3.491,43.893-4.327,65.003c8.327,3.869,43.438,21.33,33.806,36.577c-9.328,14.766-28.706-18.004-34.113-27.787
				c-0.392,12.94-0.485,25.415-0.203,37.103c9.092,4.274,49.784,24.184,39.731,33.678c-11.298,10.67-34.521-17.897-34.521-17.897
				s18.202,73.131-1.588,65.286s-6.571-69.67-7.199-71.239l0.338-1.991c-0.385-9.609-0.487-19.83-0.355-30.472
				c-3.673,9.413-10.771,25.092-15.046,18.341c-5.03-7.942,10.327-24.149,15.253-29.023c0.375-14.504,1.136-29.633,2.166-44.924
				c-7.146,18.049-22.077,44.122-29.658,31.895c-8.503-13.714,23.456-49.184,31.645-57.906c1.904-22.469,4.247-44.721,6.662-65.292
				c-10.05,26.296-42.792,81.931-53.37,62.943c-11.017-19.772,45.742-81.712,57.201-93.901
				C1819.872,232.977,1821.496,221.234,1822.934,211.215z"/>
		</g>
		<path style="fill:#3C8F7C;" d="M1937.625,230.611c-8.581,22.894-25.541,61.5-42.188,61.051
			c-22.453-0.606,9.598-50.69,42.656-74.038c0.063-1.621,0.123-3.13,0.181-4.548c5.388,1.04,10.744,2.153,15.918,3.879
			c18.842,13.121,50.76,40.564,40.96,67.723c-11.552,32.009-42.065-44.16-51.198-68.403c-0.446,11.344-1.02,28.044-1.466,48.195
			c13.468,20.649,69.64,109.953,49.466,133.136c-22.856,26.266-45.421-92.484-45.421-92.484l-4.297-28.063
			c-0.512,28.611-0.705,62.655,0.028,97.6c11.01,7.297,48.072,34.043,35.729,55.992c-11.252,20.008-28.485-26.348-35.541-47.776
			c0.593,23.562,1.624,47.368,3.279,70.042c11.244,3.85,49.762,18.516,41.223,36.132c-8.148,16.812-31.938-13.5-40.361-25.142
			c1.175,14.038,2.609,27.536,4.35,40.15c12.33,4.243,57.135,20.665,47.423,32.152c-11.233,13.288-40.652-15.589-40.652-15.589
			s29.415,79.091,6.412,72.841c-20.271-5.508-17.272-60.863-16.887-75.074c-1.893-11.47-3.49-23.859-4.83-36.872
			c-3.091,10.973-8.561,26.215-13.75,19.755c-6.245-7.776,6.934-26.085,12.479-33.127c-1.366-15.605-2.404-31.911-3.177-48.444
			c-6.071,20.781-18.671,48.398-28.189,36.314c-10.791-13.702,17.832-54.688,27.044-67.165c-0.688-24.383-0.894-48.613-0.816-71.189
			c-9.085,31.759-36.911,92.266-50.537,73.197c-14.347-20.077,37.796-92.693,50.913-110.348
			C1936.698,261.081,1937.175,244.001,1937.625,230.611z"/>
		<path style="fill:#327F6B;" d="M1914.456,268.408c-12.05,14.105-24.496-32.158-30.005-56.371
			c-0.186,16.606-0.39,38.838-0.517,64.585c7.437,7.63,30.472,33.029,27.259,51.844c-3.117,18.262-20.885-19.784-27.33-34.433
			c-0.043,13.45-0.063,27.643-0.046,42.329c9.311,8.092,31.807,30.034,21.072,44.932c-8.69,12.061-16.58-11.834-21.044-30.062
			c0.047,16.719,0.143,33.94,0.305,51.31c11.256,9.01,42.551,36.874,31.128,60.02c-10.138,20.541-24.205-22.842-30.999-47.495
			c0.206,18.516,0.492,37.099,0.875,55.326c6.175,10.33,28.68,49.906,16.361,58.434c-6.66,4.611-11.876-5.09-15.308-17.672
			c0.53,16.999,1.169,33.345,1.933,48.649c8.211,5.437,42.122,29.067,38.18,46.063c-2.463,10.613-29.054,0-29.054,0
			s21.79,58.107,0,54.476c-15.449-2.575-14.468-52.608-12.589-81.513c-0.323-5.316-0.628-10.793-0.915-16.419
			c-3.221,12.104-8.686,20.865-14.869,13.463c-10.874-13.018,9.262-43.915,13.308-49.839c-0.57-15.91-1.038-32.516-1.417-49.476
			c-8.36,16.278-40.162,55.148-43.809,35.372c-3.505-19.01,34.021-46.923,43.436-53.589c-0.313-16.88-0.548-33.979-0.719-50.968
			c-6.036,12.865-26.64,54.064-42.012,51.912c-17.832-2.497,13.706-40.61,41.983-54.832c-0.16-16.661-0.26-33.196-0.313-49.294
			c-0.059,0.423-0.114,0.838-0.184,1.288c-1.696,10.922-20.693,52.149-29.157,38.498c-8.465-13.651,29.157-52.083,29.157-52.083
			s0.063,0.103,0.153,0.342c-0.03-15.551-0.018-30.606,0.022-44.871c-5.985,15.122-26.906,48.678-33.606,37.423
			c-6.361-10.686,23.432-42.426,33.661-52.827c0.089-20.643,0.229-39.234,0.378-54.741c-7.1,15.547-28.624,58.351-35.203,42.841
			c-7.011-16.529,27.364-48.312,35.33-55.376c0.016-1.524,0.032-3.001,0.049-4.439h17.084
			C1909.693,229.912,1924.44,256.72,1914.456,268.408z"/>
	</g>
	<g>
		<g>
			<path style="fill:#327F6B;" d="M2560.578,226.149c0.808,1.123,2.023,2.685,3.803,4.837c0.023,0.031,0.047,0.062,0.069,0.093
				c-0.07,0.255-22.563,81.716-4.848,87.902c16.245,5.673,17.614-54.052,11.027-79.086c3.6,5.563,6.823,11.405,9.494,17.51
				c4.565,10.436,7.689,23.9,9.749,38.912c-3.303,5.409-23.477,39.398-13.374,46.392c8.196,5.674,13.565-16.671,15.046-31.434
				c1.185,13.343,1.699,27.448,1.756,41.452c-10.917,2.675-43.878,12.141-44.5,29.055c-0.694,18.901,27.642,13.326,44.491-21.73
				c-0.094,13.925-0.604,27.588-1.31,40.132c-7.85,7.078-40.116,37.514-34.914,55.101c5.268,17.812,25.508-2.59,34.047-41.497
				c-1.586,22.279-3.6,39.193-4.49,44.535c-0.293,1.76-0.621,4.024-0.973,6.691l0,0c-0.128,0.976-0.26,2.01-0.394,3.089l0,0
				c0,0-50.157,67.585-35.795,83.145c10.184,11.032,25.426-34.118,33.437-61.334c-2.774,28.894-5.208,66.58-2.883,78.204
				l0.182-0.037c-1.774,26.055-2.989,73.427,11.367,75.82c19.854,3.309,0-49.636,0-49.636s24.229,9.67,26.473,0
				c3.756-16.189-30.184-38.985-35.658-42.542c0.063-14.389,1.373-34.784,3.006-53.304c1.826,39.711,11.748,51.52,15.614,52.828
				c4.787,1.619,14.644-8.097,11.265-38.793c-2.626-23.849-17.23-39.27-23.618-44.966c0.437-3.389,0.856-6.31,1.241-8.622
				c0.855-5.124,2.732-20.833,4.28-41.723c3.881,32.655,13.063,59.371,21.343,42.824c8.071-16.13-13.005-46.991-20.4-57.014
				c0.854-14.564,1.458-30.755,1.461-47.197c6.158,16.143,33.163,46.494,36.533,29.125c3.314-17.08-30.208-34.851-36.594-38.067
				c-0.193-14.074-0.872-28.137-2.25-41.337c7.495,13.307,30.362,40.567,33.075,25.852c3.098-16.801-35.235-42.592-35.235-42.592
				s-0.023,0.025-0.057,0.064c-2.064-12.497-4.949-23.711-8.891-32.719c-2.549-5.828-5.584-11.421-8.966-16.762
				c14.17,9.612,35.852,18.161,34.979,8.131c-0.947-10.885-34.297-19.689-44.931-22.225c-0.362-0.523-0.606-0.742-0.761-0.736
				c-3.81-4.688-7.823-9.113-11.911-13.273h-4.648C2551.607,215.841,2556.226,220.825,2560.578,226.149z"/>
			<path style="fill:#327F6B;" d="M2531.723,254.49c10.579,5.963,6.707-23.803,3.189-43.275h-10.338
				C2522.666,227.491,2522.209,249.128,2531.723,254.49z"/>
		</g>
		<g>
			<path style="fill:#327F6B;" d="M2545.558,252.818c14.056-1.968,1.422-23.189-18.388-41.603h-20.748
				C2516.884,230.376,2532.79,254.605,2545.558,252.818z"/>
			<path style="fill:#327F6B;" d="M2489.364,211.215h-21.267c-10.906,13.601-19.145,30.348-11.732,45.369
				C2466.832,277.792,2480.94,239.72,2489.364,211.215z"/>
			<path style="fill:#3C8F7C;" d="M2502.373,211.215h-3.523c0.904,6.294,1.885,13.277,2.908,20.836
				c-8.514,16.795-51.986,105.421-31.27,124.435c22.909,21.026,31.068-86.616,31.068-86.616l1.207-30.318
				c3.469,26.15,7.301,58.033,10.32,90.947c-7.881,6.491-40.468,35.097-26.904,53.919c12.615,17.508,23.764-30.902,27.361-48.856
				c1.936,21.775,3.49,43.893,4.327,65.003c-8.327,3.869-43.438,21.33-33.807,36.577c9.328,14.766,28.706-18.004,34.114-27.787
				c0.392,12.94,0.485,25.415,0.203,37.103c-9.092,4.274-49.785,24.184-39.731,33.678c11.298,10.67,34.521-17.897,34.521-17.897
				s-18.201,73.131,1.588,65.286c19.791-7.846,6.572-69.67,7.199-71.239l-0.338-1.991c0.385-9.609,0.488-19.83,0.355-30.472
				c3.674,9.413,10.771,25.092,15.047,18.341c5.029-7.942-10.328-24.149-15.254-29.023c-0.375-14.504-1.135-29.633-2.166-44.924
				c7.146,18.049,22.078,44.122,29.658,31.895c8.504-13.714-23.455-49.184-31.645-57.906c-1.904-22.469-4.246-44.721-6.662-65.292
				c10.05,26.296,42.792,81.931,53.371,62.943c11.016-19.772-45.742-81.712-57.202-93.901
				C2505.434,232.977,2503.81,221.234,2502.373,211.215z"/>
		</g>
		<path style="fill:#3C8F7C;" d="M2387.682,230.611c8.58,22.894,25.54,61.5,42.188,61.051c22.454-0.606-9.597-50.69-42.656-74.038
			c-0.063-1.621-0.123-3.13-0.18-4.548c-5.389,1.04-10.744,2.153-15.918,3.879c-18.842,13.121-50.761,40.564-40.96,67.723
			c11.551,32.009,42.065-44.16,51.198-68.403c0.445,11.344,1.02,28.044,1.466,48.195c-13.468,20.649-69.64,109.953-49.467,133.136
			c22.856,26.266,45.421-92.484,45.421-92.484l4.297-28.063c0.513,28.611,0.705,62.655-0.027,97.6
			c-11.011,7.297-48.073,34.043-35.73,55.992c11.252,20.008,28.485-26.348,35.541-47.776c-0.592,23.562-1.624,47.368-3.279,70.042
			c-11.244,3.85-49.761,18.516-41.223,36.132c8.148,16.812,31.938-13.5,40.362-25.142c-1.175,14.038-2.609,27.536-4.351,40.15
			c-12.329,4.243-57.134,20.665-47.423,32.152c11.233,13.288,40.653-15.589,40.653-15.589s-29.416,79.091-6.412,72.841
			c20.271-5.508,17.271-60.863,16.886-75.074c1.894-11.47,3.49-23.859,4.831-36.872c3.09,10.973,8.56,26.215,13.749,19.755
			c6.245-7.776-6.933-26.085-12.479-33.127c1.366-15.605,2.404-31.911,3.178-48.444c6.07,20.781,18.67,48.398,28.188,36.314
			c10.792-13.702-17.832-54.688-27.043-67.165c0.688-24.383,0.894-48.613,0.815-71.189c9.085,31.759,36.911,92.266,50.537,73.197
			c14.347-20.077-37.796-92.693-50.912-110.348C2388.607,261.081,2388.131,244.001,2387.682,230.611z"/>
		<path style="fill:#327F6B;" d="M2410.851,268.408c12.05,14.105,24.496-32.158,30.004-56.371
			c0.186,16.606,0.39,38.838,0.517,64.585c-7.437,7.63-30.471,33.029-27.259,51.844c3.118,18.262,20.885-19.784,27.33-34.433
			c0.044,13.45,0.063,27.643,0.047,42.329c-9.312,8.092-31.808,30.034-21.073,44.932c8.691,12.061,16.581-11.834,21.044-30.062
			c-0.047,16.719-0.143,33.94-0.305,51.31c-11.255,9.01-42.55,36.874-31.127,60.02c10.137,20.541,24.204-22.842,30.999-47.495
			c-0.207,18.516-0.492,37.099-0.876,55.326c-6.175,10.33-28.68,49.906-16.36,58.434c6.659,4.611,11.876-5.09,15.307-17.672
			c-0.53,16.999-1.168,33.345-1.932,48.649c-8.211,5.437-42.123,29.067-38.18,46.063c2.462,10.613,29.054,0,29.054,0
			s-21.79,58.107,0,54.476c15.449-2.575,14.468-52.608,12.589-81.513c0.322-5.316,0.628-10.793,0.915-16.419
			c3.22,12.104,8.685,20.865,14.868,13.463c10.875-13.018-9.262-43.915-13.307-49.839c0.57-15.91,1.037-32.516,1.417-49.476
			c8.359,16.278,40.161,55.148,43.808,35.372c3.506-19.01-34.021-46.923-43.436-53.589c0.314-16.88,0.549-33.979,0.72-50.968
			c6.036,12.865,26.64,54.064,42.012,51.912c17.831-2.497-13.707-40.61-41.983-54.832c0.16-16.661,0.26-33.196,0.312-49.294
			c0.06,0.423,0.114,0.838,0.185,1.288c1.695,10.922,20.693,52.149,29.157,38.498c8.464-13.651-29.157-52.083-29.157-52.083
			s-0.064,0.103-0.153,0.342c0.029-15.551,0.017-30.606-0.022-44.871c5.984,15.122,26.906,48.678,33.605,37.423
			c6.361-10.686-23.432-42.426-33.66-52.827c-0.089-20.643-0.23-39.234-0.378-54.741c7.099,15.547,28.623,58.351,35.202,42.841
			c7.012-16.529-27.363-48.312-35.329-55.376c-0.017-1.524-0.033-3.001-0.049-4.439h-17.085
			C2415.612,229.912,2400.865,256.72,2410.851,268.408z"/>
	</g>
	<polygon style="fill:#13375B;" points="2004.469,205.552 1991.374,205.552 1708.592,205.552 1708.592,220.435 1991.374,220.435 
		2004.469,220.435 2621.14,220.435 2621.14,205.552 	"/>
	<g>
		<g>
			<path style="fill:#184655;" d="M2038.412,452.026h2.4V225.091c24.126,16.863,51.068,27.389,80.12,31.297
				c23.834,3.205,49.123,1.988,75.168-3.619c38.265-8.239,67.051-23.711,74.397-27.905v92.768h2.4v-97.007l-1.829,1.125
				c-0.312,0.191-31.619,19.245-75.549,28.689c-40.456,8.698-100.224,10.789-155.209-28.643l-1.899-1.362V452.026z"/>
		</g>
		<path style="fill:#F47458;" d="M2271.698,301.209L2271.698,301.209c12.122,0,21.949,9.827,21.949,21.95v46.822h-43.899v-46.822
			C2249.748,311.036,2259.575,301.209,2271.698,301.209z"/>
		<path style="fill:#F47458;" d="M2039.612,443.464L2039.612,443.464c12.122,0,21.949,9.827,21.949,21.95v46.822h-43.899v-46.822
			C2017.662,453.291,2027.489,443.464,2039.612,443.464z"/>
	</g>
</g>
<g>
	<path style="fill:#13375B;" d="M2019.532,837.072c22.161-9.496,46.965-19.124,69.686-11.056c14.31,5.081,25.323,16.46,35.781,27.47
		c11.466,12.07,23.648,25.805,23.932,42.451c0.115,6.768-1.808,13.394-3.921,19.825c-4.118,12.523-9.141,24.971-17.256,35.358
		c-13.156,16.837-33.367,26.822-53.947,32.569c-18.211,5.085-22.731,3.292-41.622,2.475c-12.752-0.551-32.966-20.819-41.244-30.534
		c-13.157-15.438-12.013-82.346,1.869-99.214c3.668-4.458,8.934-8.806,14.768-12.819c3.779-2.6,7.701-4.952,11.728-7.085
		C2019.386,836.714,2019.463,836.905,2019.532,837.072z"/>
	<path style="fill:#F48C7F;" d="M1771.92,1149.206c-1.617-4.683,21.138-8.378,22.364-13.104c1.228-4.726-28.694-5.198-29.751-9.357
		c-1.947-7.661,32.802-1.497,32.13-5.079c-0.673-3.582-36.193-11.704-32.329-17.833s35.954,12.265,36.942,8.1
		c0.987-4.165-31.381-14.42-30.77-23.557c0.328-4.883,53.1,24.544,59.241,21.909c6.143-2.634-6.506-25.634-1.612-29.023
		c4.895-3.389,18.732,46.722,22.096,48.404c3.353,1.677,74.651,42.698,100.045,49.27c3.116-8.502,25.453-53.561,28.204-61.601
		c14.226,10.198,30.758,12.472,45.444,21.775c-10.756,26.687-47.621,92.35-55.063,95.68c-22.656,10.141-109.887-62.722-127.306-75.2
		c-17.435-12.489-27.45-8.495-39.255-12.462C1790.497,1143.159,1773.536,1153.889,1771.92,1149.206z"/>
	<g>
		<path style="fill:#13375B;" d="M2172.991,1502.32l-8.022-6.731c29.383-34.392,45.539-99.932,46.722-189.532
			c0.901-68.295-7.286-126.895-7.369-127.478l10.41-1.451c0.083,0.591,8.372,59.858,7.473,128.928
			c-0.53,40.672-4.093,76.784-10.589,107.333C2203.401,1452.016,2190.406,1481.937,2172.991,1502.32z"/>
	</g>
	<path style="fill:#F47458;" d="M2136.834,1058.632c4.908,0,193.762-11.019,197.034,13.523
		c3.272,24.543,9.817,215.976-22.906,222.52c-32.724,6.545-191.433-22.906-191.433-22.906L2136.834,1058.632z"/>
	<path style="fill:#466EB6;" d="M2010.298,1170.356c0,0,48.224-34.924,62.804-59.936s-9.928-8.729-34.962-15.31
		c-9.479-2.492-7.081-57.543-25.001-39.648c-29.401,29.357-53.418,87.664-53.418,87.664L2010.298,1170.356z"/>
	<path style="fill:#86B1F2;" d="M2082.418,1030.208c0,0,50.847-9.947,74.049,9.263c23.203,19.211-4.971,190.007-4.946,218.321
		c0.023,28.314,15.932,108.31,15.932,108.31s-154.108,26.73-178.588-15.773c0,0-6.965-161.938-5.928-182.301
		s23.886-103.646,30.202-112.564C2019.455,1046.544,2082.418,1030.208,2082.418,1030.208z"/>
	<path style="fill:#F7A491;" d="M2082.737,952.267c0,0,0.269,1.506,0.749,4.07c2.306,12.298,11.187,53.095,17.186,64.311
		c7.25,13.554-24.82,56.783-55.688,51.508c-9.189-1.571,7.767-39.72,6.952-43.761c-1.561-7.736-3.676-18.289-5.84-29.109
		c-1.221-6.104-2.457-12.293-3.619-18.11c-3.301-16.53-5.994-30.05-5.994-30.05L2082.737,952.267z"/>
	<path style="fill:#F47458;" d="M2083.486,956.336c-0.48-2.564-0.749-4.07-0.749-4.07l-46.255-1.141c0,0,2.693,13.52,5.994,30.05
		c1.155,5.785,2.385,11.937,3.599,18.008c7.142-1.04,14.604-4.473,22.085-10.951c8.156-7.061,13.503-15.546,16.729-24.606
		C2084.319,960.736,2083.844,958.244,2083.486,956.336z"/>
	<path style="fill:#F7A491;" d="M2051.605,848.286c0,0,21.802-2.492,35.468,14.989c13.666,17.48,28.396,71.538-5.553,100.928
		c-33.948,29.39-67.491-3.878-72.465-39.15C2004.082,889.779,2002.149,847.013,2051.605,848.286z"/>
	<path style="fill:#13375B;" d="M2049.166,842.507c0,0,29.128,51.406,49.965,53.781c20.836,2.375,23.572,29.691,23.572,29.691
		s-7.449-62.942-28.078-75.08C2073.997,838.762,2049.166,842.507,2049.166,842.507z"/>
	<path style="fill:#F7A491;" d="M1856.948,1224.085l142.447-34.307c0,0,50.378-66.957,98.896-124.69
		c14.927,14.047,23.516,35.923,38.543,49.827l-106.754,121.992c-3.851,4.4-9.395,6.987-15.27,7.127l-151.659,3.608
		L1856.948,1224.085z"/>
	<path style="fill:#466EB6;" d="M2082.154,1185.191c0,0,67.733-55.243,82.313-80.255c14.579-25.012,3.766-66.915-21.268-73.496
		c-25.034-6.581-106.718,106.649-106.718,106.649L2082.154,1185.191z"/>
	<path style="fill:#FFFFFF;" d="M2028.777,946.964l22.901-2.516c0,0,0.428,8.677-9.611,10.072
		C2029.826,956.221,2028.777,946.964,2028.777,946.964z"/>
	<g>
		<path style="fill:#F7A491;" d="M1760.063,1238.322c-1.494-2.281,2.253-6.15,5.063-9.053c3.113-3.216,21.964-11.289,25.171-12.261
			c3.205-0.971,30.679,2.867,41.196,6.282c10.517,3.415,17.445,2.012,17.445,2.012c2.758-0.559,6.903-1.307,10.122-1.967
			l6.594,24.307c-24.689-0.309-50.504,1.512-52.844,1.453c-7.418-0.186-21.008-7.88-24.161-9.009
			c-3.152-1.13-9.537-0.238-13.829,1.756c-4.293,1.995-16.79,6.733-18.883,5.63
			C1753.845,1246.37,1760.063,1238.322,1760.063,1238.322z"/>
	</g>
	<path style="fill:#F7A491;" d="M2092.097,909.35c-1.933,9.085,1.723,17.56,8.165,18.931c6.441,1.371,13.23-4.883,15.163-13.968
		s-1.724-17.56-8.165-18.931C2100.817,894.012,2094.029,900.266,2092.097,909.35z"/>
	<path style="fill:#13375B;" d="M2076.857,813.943c1.45-5.183,3.538-10.444,7.586-13.991c6.337-5.551,17.01-5.146,22.908,0.869
		c2.325,2.373,3.976,5.465,6.772,7.258c6.312,4.047,16.035,0.065,21.398,5.304c1.686,1.647,2.564,3.922,3.672,6.003
		c3.876,7.284,10.851,12.592,14.476,20.004c2.878,5.884,3.393,12.884,1.407,19.126c-2.246,7.061-7.515,12.904-13.767,16.881
		c-6.253,3.978-13.454,6.234-20.711,7.736c-3.541,0.733-7.255,1.291-10.735,0.31c-3.835-1.08-6.905-3.884-9.821-6.599
		c-4.557-4.243-9.309-8.794-11.02-14.782c-0.641-2.243-0.933-4.807-2.698-6.331c-3.076-2.656-7.838-0.857-10.712-4.19
		c-2.112-2.449-1.604-5.301-1.693-8.367C2073.627,833.209,2074.153,823.606,2076.857,813.943z"/>
</g>
<g>
	<path style="fill:#F48C7F;" d="M1897.637,1755.854c0,0,46.778,55.583,47.088,60.419c0.309,4.837-1.859,57.621-7.423,62.457
		c-5.563,4.837-21.905,8.267-16.651,13.707c3.971,4.111,34.521,3.232,54.768,2.129c5.91-0.322,13.322-47.054,15.663-53.922
		c3.399-9.976,11.667-32.444,8.577-39.396c-1.507-3.389-8.711-10.351-18.864-16.849c-10.679-6.835-51.524-63.156-51.524-63.156
		L1897.637,1755.854z"/>
	<path style="fill:#466EB6;" d="M1980.133,1784.071c0,0-31.41,87.642-43.705,91.872c-3.265,1.123-18.931,3.973-21.886,10.839
		c-0.891,2.068,0,8.976,0,8.976h65.471c0,0,8.281-38.615,11.554-55.581c0,0,17.331-41.455,15.405-45.223
		C2005.046,1791.188,1980.133,1784.071,1980.133,1784.071z"/>
	<path style="fill:#F7A491;" d="M1617.444,1782.549c0,0-38.2,53.294-34.839,70.154c1.8,9.029,9.812,20.845,5.214,29.341
		s-9.853,10.62-9.853,10.62l-119.161,1.898c-6.49,0.104-2.201-4.027,3.032-7.833c8.566-6.229,15.479-10.348,42.844-23.438
		c1.784-0.854,8.282-4.939,10.625-6.355c5.941-3.588,11.909-9.235,17.046-14.892c8.556-9.421,46.18-86.189,46.18-86.189
		L1617.444,1782.549z"/>
	<path style="fill:#466EB6;" d="M1515.323,1856.926c31.515,7.997,54.81,2.561,67.841-2.636c3.361,9.419,7.816,21.236,5.453,28.051
		c-2.893,8.343-7.012,10.229-10.65,10.323c-28.785,0.748-105.441,1.765-127.391,2.049c-3.065,0.039-4.756-3.503-2.785-5.83
		C1453.234,1882.454,1512.975,1858.346,1515.323,1856.926z"/>
	<path style="fill:#EAB054;" d="M1755.617,1453.767c0,0,47.302,53.501,59.365,61.975c12.064,8.474,127.844,219.749,127.844,219.749
		l-41.246,29.843c0,0-103.476-127.857-152.071-196.246c-41.089-57.824-25.954-54.158-50.117-89.357
		c-13.303-19.378-10.286-45.581,7.255-61.301c2.183-1.956,4.553-3.997,7.13-6.126c35.768-29.541,280.933-62.787,280.933-62.787
		l156.812,15.219c0,0-128.12,89.032-132.902,91.401s-176.928,27.247-180.514,27.247
		C1834.518,1483.383,1755.617,1453.767,1755.617,1453.767z"/>
	<path style="fill:#F7CC7F;" d="M2167.452,1366.102c0,0,26.897,79.965-13.448,117.281c-40.348,37.317-280.036,33.171-358.937,33.171
		c0,0-32.277,87.665-35.863,101.881c-3.587,14.216-160.191,197.839-160.191,197.839l-43.036-27.247
		c0,0,168.559-324.598,181.709-338.813c13.15-14.217,200.837-71.08,247.46-84.111
		C2031.768,1353.07,2167.452,1366.102,2167.452,1366.102z"/>
</g>
<g>
	<path style="fill:#184655;" d="M1434.266,1060.78h236.061c6.245,0,11.872,3.74,14.241,9.467l72.685,175.675h130.142
		c3.64,0,6.589,2.922,6.589,6.525l0,0c0,3.604-2.949,6.524-6.589,6.524H1517c-10.184,0-19.418-5.923-23.589-15.129l-73.188-161.563
		C1415.651,1072.188,1423.102,1060.78,1434.266,1060.78z"/>
	<path style="fill:#FFFFFF;" d="M1561.36,1163.077c1.595,7.892,8.54,13.168,15.514,11.786s11.333-8.898,9.739-16.789
		c-1.595-7.891-8.54-13.168-15.514-11.786S1559.766,1155.187,1561.36,1163.077z"/>
</g>
<g>
	<polygon style="fill:#355389;" points="869.683,1898.488 851.694,1898.488 890.039,1565.222 908.028,1565.222 	"/>
	<polygon style="fill:#355389;" points="1072.768,1898.488 1090.756,1898.488 1052.412,1565.222 1034.423,1565.222 	"/>
	<polygon style="fill:#355389;" points="564.935,1898.488 546.946,1898.488 585.29,1565.222 603.279,1565.222 	"/>
	<polygon style="fill:#355389;" points="768.019,1898.488 786.008,1898.488 747.664,1565.222 729.674,1565.222 	"/>
	<path style="fill:#EAB054;" d="M856.072,1601.436H610.699c-28.759,0-54.459-23.313-57.403-52.072l-40.549-396.069
		c-2.944-28.759,17.982-52.072,46.741-52.072h245.372c28.758,0,54.459,23.313,57.403,52.072l40.549,396.069
		C905.757,1578.122,884.831,1601.436,856.072,1601.436z"/>
	<path style="fill:#F7CC7F;" d="M924.208,1601.436H678.835c-28.759,0-54.459-23.313-57.403-52.072l-40.549-396.069
		c-2.944-28.759,17.982-52.072,46.741-52.072h245.373c28.759,0,54.459,23.313,57.403,52.072l40.549,396.069
		C973.893,1578.122,952.967,1601.436,924.208,1601.436z"/>
	<path style="fill:#EAB054;" d="M957.087,1619.699H609.295c-26.95,0-51.035-21.847-53.794-48.797l0,0
		c-2.759-26.95,16.852-48.798,43.802-48.798h347.793c26.95,0,51.034,21.848,53.794,48.798l0,0
		C1003.648,1597.853,984.038,1619.699,957.087,1619.699z"/>
	<path style="fill:#F7CC7F;" d="M1043.913,1619.699H696.12c-26.95,0-51.034-21.847-53.793-48.797l0,0
		c-2.759-26.95,16.852-48.798,43.802-48.798h347.793c26.95,0,51.035,21.848,53.794,48.798l0,0
		C1090.474,1597.853,1070.863,1619.699,1043.913,1619.699z"/>
	<path style="fill:#F48C7F;" d="M1110.421,1219.171c1.616-4.683-21.138-8.379-22.365-13.104c-1.228-4.727,28.694-5.198,29.75-9.357
		c1.947-7.661-32.802-1.497-32.129-5.079s36.193-11.704,32.329-17.834c-3.864-6.129-35.954,12.266-36.942,8.101
		c-0.987-4.165,31.381-14.42,30.769-23.557c-0.328-4.883-53.099,24.543-59.241,21.909c-6.143-2.634,6.506-25.635,1.612-29.023
		c-4.895-3.39-18.732,46.722-22.096,48.404c-3.352,1.677-74.651,42.698-100.045,49.27c-3.116-8.502-25.453-53.562-28.203-61.602
		c-14.226,10.199-30.759,12.473-45.446,21.776c10.756,26.687,47.622,92.35,55.063,95.68c22.656,10.141,109.887-62.722,127.305-75.2
		c17.435-12.489,27.451-8.495,39.255-12.463C1091.844,1213.124,1108.805,1223.854,1110.421,1219.171z"/>
	<path style="fill:#13375B;" d="M889.017,1006.654c1.056-25.445-2.691-50.571-14.076-74.26c-9.795-20.381-34.03-31.947-56.13-31.975
		c-70.179-0.091-79.102,92.633-123.776,128.399c-13.65,10.929-28.907,19.83-41.824,31.616
		c-47.694,43.52-26.21,124.078,17.584,162.231c30.391,26.476,78.154,41.519,115.611,20.821
		c19.552-10.804,34.395-28.763,44.969-48.439c15.008-27.927,24.682-60.148,35.356-89.912
		C878.093,1073.455,887.613,1040.475,889.017,1006.654z"/>
	<path style="fill:#96D9C9;" d="M862.771,1240.849c0,0-52.412-53.741-65.898-77.089c-13.487-23.349,9.184-8.148,32.342-14.292
		c8.77-2.326,6.551-53.717,23.128-37.012c27.198,27.405,61.392,75.327,61.392,75.327L862.771,1240.849z"/>
	<path style="fill:#50BFA5;" d="M788.253,1088.88c0,0-47.037-9.285-68.501,8.647c-21.464,17.933,4.599,177.371,4.577,203.803
		c-0.023,26.432-14.738,101.107-14.738,101.107s142.562,24.953,165.207-14.725c0,0,6.442-151.169,5.483-170.178
		c-0.959-19.01-22.096-96.754-27.939-105.079C846.499,1104.13,788.253,1088.88,788.253,1088.88z"/>
	<path style="fill:#F7A491;" d="M787.958,1016.122c0,0-0.248,1.406-0.692,3.799c-2.133,11.481-10.349,49.564-15.898,60.035
		c-6.707,12.652,22.961,53.007,51.516,48.082c8.5-1.466-7.185-37.079-6.431-40.851c1.443-7.222,3.4-17.072,5.402-27.174
		c1.13-5.697,2.274-11.475,3.348-16.904c3.054-15.432,5.545-28.052,5.545-28.052L787.958,1016.122z"/>
	<path style="fill:#F47458;" d="M787.266,1019.921c0.445-2.393,0.692-3.799,0.692-3.799l42.79-1.064c0,0-2.492,12.62-5.545,28.052
		c-1.068,5.399-2.206,11.143-3.329,16.811c-6.606-0.971-13.509-4.176-20.43-10.223c-7.545-6.592-12.491-14.513-15.476-22.97
		C786.495,1024.028,786.935,1021.701,787.266,1019.921z"/>
	<path style="fill:#F7A491;" d="M816.757,919.056c0,0-20.168-2.325-32.81,13.993c-12.643,16.318-26.268,66.781,5.137,94.216
		c31.404,27.436,62.434-3.62,67.035-36.547C860.72,957.79,862.508,917.867,816.757,919.056z"/>
	<path style="fill:#F7A491;" d="M865.41,990.231c-3.749,7.272-10.041,11.299-14.054,8.995c-4.013-2.305-4.228-10.069-0.48-17.342
		c3.749-7.272,10.041-11.299,14.054-8.994C868.943,975.194,869.158,982.958,865.41,990.231z"/>
	<path style="fill:#13375B;" d="M819.014,913.661c0,0-26.945,47.987-46.22,50.205c-19.275,2.217-21.807,27.716-21.807,27.716
		s6.892-58.756,25.974-70.087C796.043,910.165,819.014,913.661,819.014,913.661z"/>
	<path style="fill:#F7A491;" d="M777.848,975.924c1.568,8.522-1.585,16.337-7.042,17.456c-5.457,1.118-11.151-4.883-12.719-13.405
		c-1.568-8.521,1.585-16.337,7.042-17.456C770.586,961.4,776.28,967.402,777.848,975.924z"/>
	<g>
		<path style="fill:#F48C7F;" d="M959.189,1766.272c0,0-43.273,51.886-43.559,56.401c-0.286,4.515,1.719,53.789,6.866,58.304
			c5.146,4.515,20.265,7.716,15.404,12.795c-3.673,3.839-31.935,3.018-50.664,1.987c-5.468-0.301-12.324-43.925-14.49-50.336
			c-3.146-9.313-10.794-30.287-7.934-36.777c1.393-3.162,8.058-9.662,17.45-15.728c9.879-6.381,47.664-58.956,47.664-58.956
			L959.189,1766.272z"/>
		<path style="fill:#F7CC7F;" d="M882.874,1792.612c0,0,29.057,81.813,40.431,85.763c3.02,1.049,17.512,3.709,20.246,10.118
			c0.823,1.931,0,8.379,0,8.379h-60.565c0,0-7.66-36.047-10.688-51.886c0,0-16.032-38.697-14.25-42.215
			C859.829,1799.255,882.874,1792.612,882.874,1792.612z"/>
		<path style="fill:#F7A491;" d="M1218.388,1791.191c0,0,35.338,49.75,32.229,65.489c-1.665,8.429-9.077,19.458-4.824,27.39
			c4.253,7.932,9.115,9.914,9.115,9.914l110.232,1.771c6.004,0.097,2.037-3.759-2.805-7.312c-7.925-5.815-14.32-9.659-39.634-21.88
			c-1.65-0.797-7.661-4.611-9.829-5.933c-5.497-3.35-11.016-8.622-15.768-13.901c-7.915-8.795-42.72-80.458-42.72-80.458
			L1218.388,1791.191z"/>
		<path style="fill:#F7CC7F;" d="M1312.857,1860.622c-29.153,7.466-50.703,2.391-62.758-2.46c-3.109,8.793-7.23,19.823-5.044,26.185
			c2.676,7.788,6.486,9.55,9.853,9.638c26.628,0.698,97.541,1.647,117.845,1.912c2.836,0.037,4.4-3.27,2.577-5.442
			C1370.294,1884.453,1315.03,1861.947,1312.857,1860.622z"/>
		<path style="fill:#13375B;" d="M1090.568,1484.272c0,0-43.757,49.943-54.917,57.854c-11.16,7.91-118.265,205.137-118.265,205.137
			l38.156,27.857c0,0,95.722-119.354,140.677-183.196c38.011-53.979,24.009-50.557,46.362-83.414
			c12.306-18.09,9.516-42.551-6.712-57.226c-2.019-1.825-4.212-3.73-6.595-5.718c-33.087-27.577-259.883-58.611-259.883-58.611
			l-145.061,14.206c0,0,118.52,83.111,122.944,85.323c4.423,2.212,163.671,25.436,166.988,25.436
			C1017.58,1511.92,1090.568,1484.272,1090.568,1484.272z"/>
		<path style="fill:#355389;" d="M709.591,1402.438c0,0-24.882,74.646,12.441,109.482c37.324,34.835,259.053,30.965,332.042,30.965
			c0,0,29.859,81.835,33.176,95.105c3.318,13.271,148.188,184.684,148.188,184.684l39.812-25.436
			c0,0-155.93-303.013-168.094-316.283c-12.165-13.271-185.789-66.354-228.918-78.518
			C835.108,1390.272,709.591,1402.438,709.591,1402.438z"/>
	</g>
	<path style="fill:#FFFFFF;" d="M833.182,1009.896l-26.875-2.004c0,0-0.142,10.253,11.651,11.476
		C832.338,1020.858,833.182,1009.896,833.182,1009.896z"/>
	<path style="fill:#F7A491;" d="M996.304,1241.894c1.617-4.683-21.138-8.379-22.365-13.104s28.694-5.198,29.751-9.357
		c1.947-7.661-32.802-1.497-32.129-5.079c0.672-3.582,36.193-11.704,32.329-17.834c-3.864-6.129-35.954,12.266-36.942,8.101
		c-0.988-4.165,31.381-14.42,30.769-23.557c-0.328-4.883-53.1,24.544-59.241,21.909c-6.142-2.634,6.506-25.635,1.612-29.023
		c-4.894-3.39-18.732,46.722-22.095,48.404c-3.353,1.677-74.651,42.698-100.045,49.27c-3.116-8.502-25.453-53.561-28.203-61.602
		c-14.226,10.199-30.759,12.473-45.445,21.776c10.756,26.687,47.621,92.35,55.063,95.68c22.656,10.141,109.887-62.722,127.305-75.2
		c17.435-12.489,27.451-8.495,39.256-12.463C977.727,1235.847,994.688,1246.576,996.304,1241.894z"/>
	<path style="fill:#96D9C9;" d="M737.48,1238.967c0,0-30.867-68.428-35.553-94.98c-4.687-26.554,18.094-59.89,41.956-57.74
		c23.862,2.149,59.638,120.29,59.638,120.29L737.48,1238.967z"/>
</g>
<g>
	
		<rect x="1219.746" y="1268.033" transform="matrix(-1 -1.224647e-16 1.224647e-16 -1 3159.7119 3164.3828)" style="fill:#44A088;" width="720.22" height="628.316"/>
	<rect x="1939.364" y="1277.622" style="fill:#96D9C9;" width="414.757" height="619.39"/>
	
		<rect x="1218.622" y="1277.622" transform="matrix(-1 -1.224647e-16 1.224647e-16 -1 3572.7427 2669.0068)" style="opacity:0.5;fill:#50BFA5;" width="1135.5" height="113.763"/>
	
		<rect x="1899.482" y="1277.622" transform="matrix(-1 -1.224647e-16 1.224647e-16 -1 3838.8467 3174.6338)" style="opacity:0.5;fill:#50BFA5;" width="39.882" height="619.39"/>
	
		<rect x="1169.06" y="1258.445" transform="matrix(-1 -1.224647e-16 1.224647e-16 -1 3570.0762 2536.0674)" style="fill:#355389;" width="1231.957" height="19.177"/>
</g>
<g>
	<path style="fill:#215E4B;" d="M2160.136,1807.817h3.306c1.09-11.127,3.23-23.42,7.041-36.28
		c14.409-48.634,8.105-54.927,32.422-85.329c24.318-30.402,26.119-93.446,26.119-93.446s11.708-71.602,0-103.123
		c-11.708-31.522-12.609-63.045-40.979-96.368c0,0-5.404,44.581-12.159,64.846c-6.755,20.264-13.169,39.628-8.161,88.263
		c5.009,48.634,8.119,52.687,9.266,65.296c1.146,12.608-0.654,65.759,2.048,74.533c2.702,8.775-15.761,69.568-17.112,95.687
		C2161.52,1789.743,2160.789,1798.69,2160.136,1807.817z"/>
	<path style="fill:#3C8F7C;" d="M2170.493,1807.817c4.691-10.824,12.95-21.579,27.411-28.035
		c37.826-16.887,63.345-16.512,80.906-57.04c17.563-40.528,17.563-95.918,23.643-107.4c0,0-16.212-2.702-32.423,26.343
		c-16.212,29.046-27.208,50.661-36.571,67.548c-9.361,16.888-22.871,12.159-34.354,24.993c-9.623,10.756-18.51,35.778-21.886,48.476
		c-1.097,4.125-2.691,8.098-4.795,11.811c-1.914,3.377-4.166,7.486-5.517,10.414c-0.301,0.65-0.599,1.644-0.893,2.892H2170.493z"/>
	<path style="fill:#215E4B;" d="M2063.756,1615.728c-2.701,34.675,19.364,31.973,20.265,54.038
		c0.901,22.065,29.721,59.442,43.073,86.011c6.944,13.819,9.509,34.945,10.371,52.041h10.728
		c-4.149-43.269-21.705-73.387-32.199-97.523c-13.51-31.071-15.536-45.257-4.053-69.574c11.483-24.316-5.403-87.136,10.943-115.143
		c16.348-28.006,7.97-71.964,4.21-88.852c-3.761-16.887,0.383-28.37,3.76-46.173c3.378-17.804-3.76-43.665-3.76-43.665
		c-0.608,22.065-17.405,52.236-29.563,71.601c-12.159,19.363-35.125,72.051-32.423,95.918c2.701,23.866,1.351,25.668,1.351,25.668
		C2057.902,1572.047,2066.458,1581.053,2063.756,1615.728z"/>
	<path style="fill:#3C8F7C;" d="M2128.122,1779.641c1.38,4.14,5.803,14.71,9.851,28.177h6.578
		c-2.992-17.144-8.159-37.038-16.879-48.44c-17.563-22.967-52.688-32.873-56.74-49.535s0.451-66.647-25.218-94.566
		c0,0,3.603,31.083,0,39.408s-34.224,47.053-16.211,79.476s58.541,28.37,71.149,35.575
		C2113.262,1776.939,2125.871,1772.887,2128.122,1779.641z"/>
	<path style="fill:#3C8F7C;" d="M2111.91,1630.107c-0.449,33.324,25.669,45.933,25.219,64.396s5.404,38.277,10.357,53.138
		c3.136,9.407,1.399,35.597,0.845,60.177h7.248c1.824-18.063,3.825-44.123,3.165-55.674c-0.9-15.761,6.305-28.37,7.205-55.839
		c0.9-27.47,6.755-52.237-5.404-86.912c-12.158-34.674-9.906-76.104-60.793-114.381c0,0-9.006,40.529-2.251,62.595
		S2112.361,1596.784,2111.91,1630.107z"/>
	<path style="fill:#327F6B;" d="M2111.91,1630.107c-0.449,33.324,25.669,45.933,25.219,64.396s5.404,38.277,10.357,53.138
		c3.136,9.407,1.399,35.597,0.845,60.177h3.008c0.407-5.135,0.801-8.36,0.801-8.36l1.501-62.144c0,0-3.002-48.634-8.406-88.263
		c-5.403-39.628-45.482-154.039-45.482-154.039s-9.006,40.529-2.251,62.595S2112.361,1596.784,2111.91,1630.107z"/>
	<path style="fill:#F47458;" d="M2163.463,1779.38h-4.861h-64.887c-4.77,0-8.287,4.462-7.186,9.111l25.426,107.216
		c0.791,3.335,3.764,5.688,7.185,5.688h39.462h4.861h39.461c3.422,0,6.395-2.354,7.186-5.688l25.425-107.216
		c1.103-4.649-2.416-9.111-7.185-9.111H2163.463z"/>
</g>
<g>
	<circle style="fill:#F7CC7F;" cx="1407.024" cy="992.981" r="22.45"/>
	<g>
		<path style="fill:#B75742;" d="M1344.56,1246.574h5.911c0.652,0,1.181-0.529,1.181-1.182V1221.2c0-0.652-0.529-1.181-1.181-1.181
			h-5.911c-0.652,0-1.181,0.528-1.181,1.181v24.192C1343.379,1246.045,1343.907,1246.574,1344.56,1246.574z"/>
		<g>
			<path style="fill:#50BFA5;" d="M1304.064,940.745c6.916-9.059,14.673-14.064,23.056-14.875
				c12.929-1.251,23.231,7.748,23.334,7.839l5.153-5.806c-0.522-0.464-12.973-11.332-29.234-9.76
				c-10.618,1.027-20.199,7.047-28.479,17.891L1304.064,940.745z"/>
		</g>
		<path style="fill:#B75742;" d="M1362.814,920.597l35.369,35.369c1.626,1.626,1.626,4.263,0,5.889l-14.738,14.739
			c-1.626,1.626-4.263,1.626-5.889,0l-35.37-35.369c-1.626-1.626-1.626-4.263,0-5.889l14.739-14.739
			C1358.552,918.971,1361.188,918.971,1362.814,920.597z"/>
		<path style="fill:#F47458;" d="M1441.884,952.369l-75.472,75.471c-20.84-20.841-20.84-54.63,0-75.471
			C1387.253,931.528,1421.043,931.528,1441.884,952.369z"/>
		<g>
			<path style="fill:#B75742;" d="M1213.994,1084.529l75.684-154.171l23.622,11.596l-75.683,154.171L1213.994,1084.529z
				 M1293.38,941.2l-68.544,139.627l9.079,4.456l68.544-139.627L1293.38,941.2z"/>
		</g>
		<g>
			<path style="fill:#B75742;" d="M1208.763,1094.326l24.903-8.504l55.499,162.532l-24.903,8.503L1208.763,1094.326z
				 M1228.618,1096.106l-9.571,3.269l50.263,147.199l9.571-3.269L1228.618,1096.106z"/>
		</g>
		<path style="fill:#96D9C9;" d="M1362.381,1033.513l4.111,4.111c0.453,0.453,1.189,0.453,1.643,0l83.532-83.533
			c0.454-0.454,0.454-1.189,0-1.643l-4.11-4.11c-0.454-0.454-1.189-0.454-1.643,0l-83.533,83.533
			C1361.928,1032.324,1361.928,1033.06,1362.381,1033.513z"/>
		<circle style="fill:#F47458;" cx="1224.47" cy="1093.049" r="19.187"/>
		<path style="fill:#50BFA5;" d="M1397.785,1232.688h-163.439c-4.145,0-7.504,3.359-7.504,7.503v18.781h178.447v-18.781
			C1405.289,1236.047,1401.93,1232.688,1397.785,1232.688z"/>
	</g>
</g>
<g>
	<ellipse style="fill:#355389;" cx="1195.901" cy="549.205" rx="140.005" ry="139.895"/>
	<ellipse style="fill:#FFFFFF;" cx="1195.901" cy="549.205" rx="123.324" ry="123.228"/>
	<g>
		
			<rect x="1102.491" y="529.662" transform="matrix(6.123234e-17 -1 1 6.123234e-17 555.2678 1652.636)" style="fill:#C5DDF9;" width="2.921" height="38.043"/>
		
			<rect x="1286.647" y="529.663" transform="matrix(6.123234e-17 -1 1 6.123234e-17 739.4233 1836.7915)" style="fill:#C5DDF9;" width="2.921" height="38.043"/>
		<rect x="1194.291" y="439.137" style="fill:#C5DDF9;" width="2.923" height="38.013"/>
		<rect x="1194.291" y="622.412" style="fill:#C5DDF9;" width="2.923" height="38.013"/>
		<path style="fill:#B0C1EC;" d="M1199.338,549.205c0,1.896-1.539,3.434-3.437,3.434s-3.437-1.538-3.437-3.434
			s1.539-3.434,3.437-3.434S1199.338,547.308,1199.338,549.205z"/>
		<g>
			<path style="fill:#B0C1EC;" d="M1195.901,550.74c-0.394,0-0.787-0.15-1.086-0.45l-61.749-61.701c-0.6-0.599-0.6-1.571,0-2.171
				c0.599-0.6,1.573-0.6,2.172,0l61.749,61.701c0.6,0.599,0.6,1.571,0,2.17C1196.688,550.59,1196.294,550.74,1195.901,550.74z"/>
		</g>
		<g>
			<g>
				<path style="fill:#B0C1EC;" d="M1215.756,611.56c-0.255-0.128-0.462-0.354-0.559-0.647l-19.959-60.241
					c-0.194-0.586,0.124-1.217,0.709-1.411c0.585-0.194,1.218,0.124,1.411,0.709l19.96,60.241c0.194,0.586-0.124,1.217-0.709,1.411
					C1216.316,611.72,1216.011,611.688,1215.756,611.56z"/>
			</g>
		</g>
	</g>
</g>
<rect x="153.314" y="1892.098" style="fill:#13375B;" width="2508.823" height="18.596"/>
</svg>
