<?xml version="1.0" encoding="utf-8"?>
<!-- Generator: Adobe Illustrator 27.5.0, SVG Export Plug-In . SVG Version: 6.00 Build 0)  -->
<svg version="1.1" xmlns="http://www.w3.org/2000/svg" xmlns:xlink="http://www.w3.org/1999/xlink" x="0px" y="0px"
	width="300px" height="300px" viewBox="0 0 500 500" style="enable-background:new 0 0 500 500;" xml:space="preserve">
<g id="BACKGROUND">
	<rect style="fill:#FFFFFF;" width="500px" height="500px"/>
</g>
<g id="OBJECTS">
	<g>
		<path style="fill:#CED9E7;" d="M74.9,387.977c43.285,69.308,171.012,96.189,272.445,25.589
			c101.433-70.599,113.316-193.722,85.555-241.29c-36.141-61.928-116.285-59.41-187.729-1.434
			C184.985,219.68,1.38,270.257,74.9,387.977z"/>
		<path style="fill:#CED9E7;" d="M87.697,189.559C45.525,154.958,57.945,87.876,121.945,63.041
			c73.846-28.656,130.348-10.299,139.78,25.963c9.432,36.261-45.927,60.136-73.608,90.436
			C160.436,209.739,116.746,213.392,87.697,189.559z"/>
		<path style="fill:#CED9E7;" d="M409.336,386.639c28.17-36.301,70.99,13.941,46.802,49.533
			C431.95,471.765,363.262,446.012,409.336,386.639z"/>
		<path style="fill:#CED9E7;" d="M334.064,92.877c-30.079-19.855-17.725-59.792,21.074-63.458
			c38.799-3.666,68.794,26.662,63.462,49.992C413.268,102.741,376.175,120.673,334.064,92.877z"/>
	</g>
	<g>
		<path style="fill:none;stroke:#011635;stroke-width:1.2;stroke-linecap:round;stroke-linejoin:round;stroke-miterlimit:10;" d="
			M443.835,374.002c-1.411-1.431-4.273-0.755-4.894,1.156c-0.622,1.911,1.294,4.141,3.277,3.815
			C444.201,378.647,445.53,375.721,443.835,374.002z"/>
		<path style="fill:none;stroke:#011635;stroke-width:1.2;stroke-linecap:round;stroke-linejoin:round;stroke-miterlimit:10;" d="
			M86.921,55.684c-1.411-1.431-4.273-0.755-4.894,1.156c-0.622,1.911,1.294,4.141,3.277,3.815
			C87.287,60.329,88.617,57.403,86.921,55.684z"/>
		<path style="fill:none;stroke:#011635;stroke-width:1.2;stroke-linecap:round;stroke-linejoin:round;stroke-miterlimit:10;" d="
			M454.973,157.904c-1.411-1.431-4.273-0.755-4.894,1.156c-0.622,1.911,1.294,4.141,3.277,3.815
			C455.339,162.549,456.668,159.623,454.973,157.904z"/>
		<g>
			<path style="fill:none;stroke:#011635;stroke-width:1.2;stroke-linecap:round;stroke-linejoin:round;stroke-miterlimit:10;" d="
				M40.939,354.779c0.042,3.096,0.083,6.191,0.125,9.287"/>
			<path style="fill:none;stroke:#011635;stroke-width:1.2;stroke-linecap:round;stroke-linejoin:round;stroke-miterlimit:10;" d="
				M36.642,359.434c2.865-0.008,5.73-0.015,8.594-0.022"/>
		</g>
		<g>
			<path style="fill:none;stroke:#011635;stroke-width:1.2;stroke-linecap:round;stroke-linejoin:round;stroke-miterlimit:10;" d="
				M241.845,92.44c0.041,3.096,0.083,6.191,0.124,9.287"/>
			<path style="fill:none;stroke:#011635;stroke-width:1.2;stroke-linecap:round;stroke-linejoin:round;stroke-miterlimit:10;" d="
				M237.548,97.094c2.865-0.008,5.73-0.015,8.594-0.022"/>
		</g>
		
			<line style="fill:none;stroke:#011635;stroke-width:1.2;stroke-linecap:round;stroke-linejoin:round;stroke-miterlimit:10;" x1="27.791" y1="165.462" x2="32.802" y2="174.956"/>
		
			<line style="fill:none;stroke:#011635;stroke-width:1.2;stroke-linecap:round;stroke-linejoin:round;stroke-miterlimit:10;" x1="433.793" y1="433.188" x2="438.804" y2="442.683"/>
		
			<line style="fill:none;stroke:#011635;stroke-width:1.2;stroke-linecap:round;stroke-linejoin:round;stroke-miterlimit:10;" x1="217.042" y1="402.603" x2="208.661" y2="409.313"/>
		
			<line style="fill:none;stroke:#011635;stroke-width:1.2;stroke-linecap:round;stroke-linejoin:round;stroke-miterlimit:10;" x1="284.272" y1="35.928" x2="273.643" y2="37.437"/>
		
			<line style="fill:none;stroke:#011635;stroke-width:1.2;stroke-linecap:round;stroke-linejoin:round;stroke-miterlimit:10;" x1="49.421" y1="412.479" x2="38.792" y2="413.989"/>
		
			<line style="fill:none;stroke:#011635;stroke-width:1.2;stroke-linecap:round;stroke-linejoin:round;stroke-miterlimit:10;" x1="472.467" y1="191.742" x2="471.272" y2="202.411"/>
		
			<line style="fill:none;stroke:#011635;stroke-width:1.2;stroke-linecap:round;stroke-linejoin:round;stroke-miterlimit:10;" x1="126.85" y1="37.191" x2="125.656" y2="47.86"/>
		<circle style="fill:#011635;" cx="232.41" cy="154.405" r="2.13"/>
		<circle style="fill:#011635;" cx="429.17" cy="42.526" r="2.13"/>
		<circle style="fill:#011635;" cx="414.2" cy="370.839" r="2.13"/>
		<circle style="fill:#011635;" cx="179.553" cy="467.235" r="2.13"/>
		<circle style="fill:#011635;" cx="104.222" cy="357.292" r="2.13"/>
		<circle style="fill:#011635;" cx="41.064" cy="97.072" r="2.13"/>
	</g>
	<g>
		<g>
			<path style="fill:#FF685B;" d="M278.957,500h94.508c5.135-35.26,1.235-71.878,10.07-106.462
				c1.649-6.456,3.726-12.77,6.043-19.005v-55.907l-81.156,1.928c-6.133,19.592,4.57,40.18,5.938,60.664
				C317.142,422.815,281.646,458.705,278.957,500z"/>
			<path style="fill:#F05548;" d="M307.813,346.539c17.829,0.092,53.413-0.345,81.765-4.592v-23.32l-81.156,1.928
				C305.76,329.058,306.272,337.75,307.813,346.539z"/>
		</g>
		<g>
			
				<path style="fill:#011635;stroke:#011635;stroke-width:1.2;stroke-linecap:round;stroke-linejoin:round;stroke-miterlimit:10;" d="
				M45.293,254.149c-0.431,23.73,1.6,44.561,6.911,66.14c1.582,6.43,7.244,11.044,13.859,11.331
				c124.075,5.363,247.589,6.275,371.944,3.666c7.174-0.15,13.271-5.387,14.416-12.469c4.768-29.51,8.379-59.463,7.608-89.346
				L45.293,254.149z"/>
			<g>
				<path style="fill:#32E69E;" d="M454.681,311.35c6.315-37.989,7.2-76.879,2.622-115.116c-1.062-8.87-8.119-15.826-16.999-16.797
					c-127.014-13.884-253.488-12.287-377.716,4.921c-9.044,1.253-15.938,8.704-16.537,17.815
					c-2.34,35.654-1.073,71.012,4.61,106.772c1.435,9.038,9.101,15.793,18.244,16.119c121.4,4.331,243.034,5.194,367.31,2.291
					C445.406,327.14,453.174,320.419,454.681,311.35z"/>
				<path style="fill:#FFFFFF;" d="M83.25,193.785c-4.649-0.221-9.371-0.436-13.9,0.633c-4.531,1.069-8.924,3.612-11.161,7.693
					c-1.893,3.453-2.052,7.567-2.022,11.504c0.033,4.497,0.252,8.991,0.658,13.47c0.228,2.524,0.947,5.585,3.388,6.27
					c1.511,0.424,3.175-0.346,4.155-1.573c0.98-1.225,1.378-2.82,1.528-4.382c0.511-5.366-1.511-11.231,1.136-15.926
					c2.437-4.322,7.887-5.836,12.823-6.341c4.935-0.504,10.204-0.492,14.381-3.17c1.543-0.988,2.972-2.601,2.752-4.421
					c-0.285-2.361-3.089-3.512-5.468-3.582C89.142,193.893,86.666,193.946,83.25,193.785z"/>
				<path style="fill:#FFFFFF;" d="M111.255,201.57c-2.299,0.201-4.585-1.646-4.872-3.936c-0.286-2.29,1.476-4.643,3.754-5.013
					c2.277-0.371,4.695,1.303,5.148,3.565C115.739,198.448,114.215,201.31,111.255,201.57z"/>
				<path style="fill:none;stroke:#011635;stroke-width:1.2;stroke-linecap:round;stroke-linejoin:round;stroke-miterlimit:10;" d="
					M454.681,311.35c6.315-37.989,7.2-76.879,2.622-115.116c-1.062-8.87-8.119-15.826-16.999-16.797
					c-127.014-13.884-253.488-12.287-377.716,4.921c-9.044,1.253-15.938,8.704-16.537,17.815
					c-2.34,35.654-1.073,71.012,4.61,106.772c1.435,9.038,9.101,15.793,18.244,16.119c121.4,4.331,243.034,5.194,367.31,2.291
					C445.406,327.14,453.174,320.419,454.681,311.35z"/>
				<g>
					<g>
						<polygon style="fill:#FD447D;" points="252.56,275.008 236.284,283.564 239.393,265.441 226.225,252.605 244.422,249.961 
							252.56,233.472 260.698,249.961 278.896,252.605 265.728,265.441 268.836,283.564 						"/>
						<polygon style="fill:#FFFFFF;" points="260.698,249.961 254.077,236.544 254.077,275.805 268.836,283.564 265.728,265.441 
							278.896,252.605 						"/>
						
							<polygon style="fill:none;stroke:#011635;stroke-width:1.2;stroke-linecap:round;stroke-linejoin:round;stroke-miterlimit:10;" points="
							252.56,275.008 236.284,283.564 239.393,265.441 226.225,252.605 244.422,249.961 252.56,233.472 260.698,249.961 
							278.896,252.605 265.728,265.441 268.836,283.564 						"/>
					</g>
					<g>
						<polygon style="fill:#FD447D;" points="177.423,275.008 161.147,283.564 164.255,265.441 151.088,252.605 169.285,249.961 
							177.423,233.472 185.561,249.961 203.758,252.605 190.591,265.441 193.699,283.564 						"/>
						
							<polygon style="fill:none;stroke:#011635;stroke-width:1.2;stroke-linecap:round;stroke-linejoin:round;stroke-miterlimit:10;" points="
							177.423,275.008 161.147,283.564 164.255,265.441 151.088,252.605 169.285,249.961 177.423,233.472 185.561,249.961 
							203.758,252.605 190.591,265.441 193.699,283.564 						"/>
					</g>
					<g>
						<polygon style="fill:#FD447D;" points="102.286,275.008 86.01,283.564 89.118,265.441 75.951,252.605 94.148,249.961 
							102.286,233.472 110.424,249.961 128.621,252.605 115.453,265.441 118.562,283.564 						"/>
						
							<polygon style="fill:none;stroke:#011635;stroke-width:1.2;stroke-linecap:round;stroke-linejoin:round;stroke-miterlimit:10;" points="
							102.286,275.008 86.01,283.564 89.118,265.441 75.951,252.605 94.148,249.961 102.286,233.472 110.424,249.961 
							128.621,252.605 115.453,265.441 118.562,283.564 						"/>
					</g>
					<g>
						<polygon style="fill:#FFFFFF;" points="327.698,275.008 311.422,283.564 314.53,265.441 301.363,252.605 319.56,249.961 
							327.698,233.472 335.836,249.961 354.033,252.605 340.865,265.441 343.974,283.564 						"/>
						
							<polygon style="fill:none;stroke:#011635;stroke-width:1.2;stroke-linecap:round;stroke-linejoin:round;stroke-miterlimit:10;" points="
							327.698,275.008 311.422,283.564 314.53,265.441 301.363,252.605 319.56,249.961 327.698,233.472 335.836,249.961 
							354.033,252.605 340.865,265.441 343.974,283.564 						"/>
					</g>
					<g>
						<polygon style="fill:#FFFFFF;" points="402.835,275.008 386.559,283.564 389.668,265.441 376.5,252.605 394.697,249.961 
							402.835,233.472 410.973,249.961 429.17,252.605 416.003,265.441 419.111,283.564 						"/>
						
							<polygon style="fill:none;stroke:#011635;stroke-width:1.2;stroke-linecap:round;stroke-linejoin:round;stroke-miterlimit:10;" points="
							402.835,275.008 386.559,283.564 389.668,265.441 376.5,252.605 394.697,249.961 402.835,233.472 410.973,249.961 
							429.17,252.605 416.003,265.441 419.111,283.564 						"/>
					</g>
				</g>
				<rect x="152.162" y="203.518" style="fill:none;" width="200.672" height="16.041"/>
				
					
				<path style="opacity:0.12;fill:#013532;" d="M436.215,327.355c9.19-0.216,16.959-6.937,18.465-16.005
					c3.525-21.203,5.354-42.686,5.49-64.179c-122.286,61.58-370.991,46.25-412.06,43.227c0.723,6.173,1.567,12.354,2.551,18.547
					c1.435,9.037,9.101,15.793,18.244,16.119C190.306,329.395,311.939,330.258,436.215,327.355z"/>
			</g>
		</g>
		<g>
			<path style="fill:#FF685B;" d="M335.94,355.468c11.169-11.521,28.618-19.443,44.341-16.732
				c5.37-10.178,6.692-12.085,13.766-21.16c2.974-3.816,7.829-7.91,12.05-5.544c4.109,2.303,3.346,8.37,1.862,12.839
				c-6.299,18.972-11.427,30.96-18.381,49.663"/>
			<path style="fill:none;stroke:#011635;stroke-width:1.2;stroke-linecap:round;stroke-linejoin:round;stroke-miterlimit:10;" d="
				M335.94,355.468c11.169-11.521,28.618-19.443,44.341-16.732c5.37-10.178,6.692-12.085,13.766-21.16
				c2.974-3.816,7.829-7.91,12.05-5.544c4.109,2.303,3.346,8.37,1.862,12.839c-6.299,18.972-11.427,30.96-18.381,49.663"/>
		</g>
		<g>
			<g>
				<path style="fill:#FF685B;" d="M222.638,314.008l-12.787-14.768c-2.936-2.525-7.497-4.724-11.328-4.992
					c-3.831-0.267-7.745,0.862-10.844,3.13c-3.617-2.896-8.413-3.675-12.935-2.852c-4.522,0.824-8.737,3.244-11.727,6.733
					c-10.119-2.014-18.428,4.738-22.657,12.734c-4.229,7.997-5.447,17.18-7.678,25.948C120.639,387.253,62.756,437.786,48.018,500
					h97.311c8.554-22.839,14.248-51.329,22.896-72.088c10.284-24.69,23.317-48.911,43.128-66.88
					c6.154-5.583,13.117-10.773,16.665-18.287C232.465,333.329,230.19,321.176,222.638,314.008z"/>
				<path style="fill:#F05548;" d="M208.664,322.036c-0.099,0.593,2.224,18.722,2.224,18.722
					c8.521-4.343,14.911-11.183,18.392-15.518c-1.194-4.247-3.437-8.191-6.642-11.233l-3.268-3.774
					C213.746,315.938,208.738,321.595,208.664,322.036z"/>
			</g>
			<g>
				<path style="fill:#FF685B;" d="M204.366,304.892c8.282-11.292,21.697-28.409,30.931-38.935
					c3.162-3.604,6.509-7.259,10.873-9.244c2.372-1.078,5.328-1.556,7.464-0.064c1.963,1.371,2.631,4.064,2.247,6.428
					c-0.384,2.363-1.627,4.485-2.848,6.544c-14.049,23.712-28.097,47.425-42.146,71.138"/>
				<path style="fill:none;stroke:#011635;stroke-width:1.2;stroke-linecap:round;stroke-linejoin:round;stroke-miterlimit:10;" d="
					M204.366,304.892c8.282-11.292,21.697-28.409,30.931-38.935c3.162-3.604,6.509-7.259,10.873-9.244
					c2.372-1.078,5.328-1.556,7.464-0.064c1.963,1.371,2.631,4.064,2.247,6.428c-0.384,2.363-1.627,4.485-2.848,6.544
					c-14.049,23.712-28.097,47.425-42.146,71.138"/>
			</g>
		</g>
	</g>
	<g>
		<g>
			<g style="opacity:0.12;">
				
					<path style="fill:#011635;stroke:#011635;stroke-width:1.2;stroke-linecap:round;stroke-linejoin:round;stroke-miterlimit:10;" d="
					M194.299,135.989L85.62,130.014c-6.158,21.238,1.421,46.489,18.658,60.305c-1.577,0.58-3.108,1.321-4.271,2.268
					c-3.923,3.198-6.755,9.025-6.755,9.025c0.815,0.952,1.254,1.465,2.069,2.419c4.759-3.426,9.676-6.583,14.479-9.849
					c17.567,10.656,41.158,10.957,58.775,0.246C187.797,182.744,198.217,158.137,194.299,135.989z"/>
				<path style="fill:#011635;" d="M194.805,141.157c-1.071-23.244-18.325-44.848-40.758-51.03
					c-22.64-6.239-48.512,3.663-61.264,23.126c-12.752,19.463-11.426,47.08,3.13,65.234c1.164,1.451,2.413,2.825,3.723,4.135
					c-2.328,6.071-4.605,12.207-6.382,18.99c5.385-3.624,10.774-7.268,16.211-11.236c14.577,9.005,33.348,11.418,49.444,5.341
					C180.679,187.499,195.874,164.402,194.805,141.157z"/>
				<path style="fill:#011635;" d="M158.909,195.717c16.102-6.078,28.598-20.298,33.586-36.695
					c-31.576,34.737-79.665,21.656-100.692,13.496c1.229,2.077,2.593,4.077,4.11,5.969c1.164,1.451,2.413,2.825,3.723,4.135
					c-2.328,6.071-4.605,12.207-6.382,18.99c5.385-3.624,10.774-7.268,16.211-11.236
					C124.042,199.381,142.812,201.794,158.909,195.717z"/>
				<path style="fill:none;stroke:#011635;stroke-width:1.2;stroke-linecap:round;stroke-linejoin:round;stroke-miterlimit:10;" d="
					M194.805,141.157c-1.071-23.244-18.325-44.848-40.758-51.03c-22.64-6.239-48.512,3.663-61.264,23.126
					c-12.752,19.463-11.426,47.08,3.13,65.234c1.164,1.451,2.413,2.825,3.723,4.135c-2.328,6.071-4.605,12.207-6.382,18.99
					c5.385-3.624,10.774-7.268,16.211-11.236c14.577,9.005,33.348,11.418,49.444,5.341
					C180.679,187.499,195.874,164.402,194.805,141.157z"/>
				<path style="fill:#011635;" d="M140.349,174.601c-11.463-5.566-20.91-15.18-26.275-26.738
					c-2.347-5.058-3.948-10.705-2.972-16.193c0.975-5.49,5.061-10.693,10.562-11.593c4.331-0.709,8.751,1.308,11.958,4.303
					c3.207,2.995,5.412,6.883,7.044,11.576c2.816-4.441,5.793-9.044,10.308-11.742c4.515-2.698,11.042-2.812,14.461,1.184
					c2.78,3.25,2.705,8.05,1.85,12.239C164.216,152.678,153.353,164.986,140.349,174.601z"/>
			</g>
			<g>
				<g>
					
						<path style="fill:#011635;stroke:#011635;stroke-width:1.2;stroke-linecap:round;stroke-linejoin:round;stroke-miterlimit:10;" d="
						M187.299,128.989L78.62,123.014c-6.158,21.238,1.421,46.489,18.658,60.305c-1.577,0.58-3.108,1.321-4.271,2.268
						c-3.923,3.198-6.755,9.025-6.755,9.025c0.815,0.952,1.254,1.465,2.069,2.419c4.759-3.426,9.676-6.583,14.479-9.849
						c17.567,10.656,41.158,10.957,58.775,0.246C180.797,175.744,191.217,151.137,187.299,128.989z"/>
					<g>
						<g>
							<path style="fill:#FFFFFF;" d="M187.805,134.157c-1.071-23.244-18.325-44.848-40.758-51.03
								c-22.64-6.239-48.512,3.663-61.264,23.126c-12.752,19.464-11.426,47.08,3.13,65.234c1.164,1.451,2.413,2.825,3.723,4.135
								c-2.328,6.071-4.605,12.207-6.382,18.99c5.385-3.624,10.774-7.268,16.211-11.236c14.577,9.005,33.348,11.418,49.444,5.341
								C173.679,180.499,188.874,157.402,187.805,134.157z"/>
							<path style="fill:#DBE1E7;" d="M151.909,188.717c16.102-6.078,28.598-20.298,33.585-36.695
								c-31.576,34.737-79.665,21.656-100.692,13.496c1.229,2.077,2.593,4.077,4.11,5.969c1.164,1.451,2.413,2.825,3.723,4.135
								c-2.328,6.071-4.605,12.207-6.382,18.99c5.385-3.624,10.774-7.268,16.211-11.236
								C117.042,192.381,135.812,194.794,151.909,188.717z"/>
							
								<path style="fill:none;stroke:#011635;stroke-width:1.2;stroke-linecap:round;stroke-linejoin:round;stroke-miterlimit:10;" d="
								M187.805,134.157c-1.071-23.244-18.325-44.848-40.758-51.03c-22.64-6.239-48.512,3.663-61.264,23.126
								c-12.752,19.464-11.426,47.08,3.13,65.234c1.164,1.451,2.413,2.825,3.723,4.135c-2.328,6.071-4.605,12.207-6.382,18.99
								c5.385-3.624,10.774-7.268,16.211-11.236c14.577,9.005,33.348,11.418,49.444,5.341
								C173.679,180.499,188.874,157.402,187.805,134.157z"/>
						</g>
						<path style="fill:#FD447D;" d="M133.349,167.601c-11.463-5.566-20.91-15.18-26.275-26.738
							c-2.347-5.058-3.948-10.705-2.972-16.193c0.975-5.49,5.061-10.693,10.562-11.593c4.331-0.709,8.751,1.308,11.958,4.303
							c3.207,2.995,5.412,6.883,7.044,11.576c2.816-4.441,5.793-9.044,10.308-11.742c4.515-2.698,11.042-2.812,14.461,1.184
							c2.78,3.25,2.705,8.05,1.85,12.239C157.216,145.678,146.353,157.986,133.349,167.601z"/>
					</g>
				</g>
			</g>
		</g>
		<g>
			<g style="opacity:0.12;">
				
					<path style="fill:#011635;stroke:#011635;stroke-width:1.2;stroke-linecap:round;stroke-linejoin:round;stroke-miterlimit:10;" d="
					M314.468,479.351l5.975-108.679c-21.238-6.158-46.489,1.421-60.305,18.658c-0.58-1.577-1.321-3.108-2.268-4.271
					c-3.198-3.923-9.024-6.755-9.024-6.755c-0.952,0.815-1.465,1.254-2.419,2.069c3.426,4.759,6.583,9.676,9.849,14.48
					c-10.656,17.567-10.957,41.158-0.246,58.775C267.713,472.848,292.32,483.268,314.468,479.351z"/>
				<path style="fill:#011635;" d="M309.3,479.856c23.244-1.071,44.848-18.325,51.03-40.758c6.239-22.64-3.663-48.512-23.126-61.264
					c-19.464-12.752-47.08-11.426-65.234,3.13c-1.451,1.164-2.825,2.413-4.135,3.723c-6.071-2.328-12.207-4.605-18.99-6.382
					c3.624,5.385,7.268,10.774,11.236,16.211c-9.005,14.577-11.418,33.348-5.341,49.444
					C262.958,465.73,286.055,480.926,309.3,479.856z"/>
				<path style="fill:#011635;" d="M359.617,441.442c-32.25,24.763-84.831,12.129-103.109,6.632
					c9.423,19.541,31.042,32.782,52.792,31.781C331.727,478.823,352.622,462.722,359.617,441.442z"/>
				<path style="fill:none;stroke:#011635;stroke-width:1.2;stroke-linecap:round;stroke-linejoin:round;stroke-miterlimit:10;" d="
					M309.3,479.856c23.244-1.071,44.848-18.325,51.03-40.758c6.239-22.64-3.663-48.512-23.126-61.264
					c-19.464-12.752-47.08-11.426-65.234,3.13c-1.451,1.164-2.825,2.413-4.135,3.723c-6.071-2.328-12.207-4.605-18.99-6.382
					c3.624,5.385,7.268,10.774,11.236,16.211c-9.005,14.577-11.418,33.348-5.341,49.444
					C262.958,465.73,286.055,480.926,309.3,479.856z"/>
				
					<circle style="fill:#011635;stroke:#011635;stroke-width:1.2;stroke-linecap:round;stroke-linejoin:round;stroke-miterlimit:10;" cx="307.1" cy="424.361" r="4.126"/>
				
					<circle style="fill:#011635;stroke:#011635;stroke-width:1.2;stroke-linecap:round;stroke-linejoin:round;stroke-miterlimit:10;" cx="285.795" cy="424.361" r="4.126"/>
				
					<circle style="fill:#011635;stroke:#011635;stroke-width:1.2;stroke-linecap:round;stroke-linejoin:round;stroke-miterlimit:10;" cx="328.405" cy="424.361" r="4.126"/>
			</g>
			<g>
				<g>
					
						<path style="fill:#011635;stroke:#011635;stroke-width:1.2;stroke-linecap:round;stroke-linejoin:round;stroke-miterlimit:10;" d="
						M307.468,472.351l5.975-108.679c-21.238-6.158-46.489,1.421-60.305,18.658c-0.58-1.577-1.321-3.108-2.268-4.271
						c-3.198-3.923-9.024-6.755-9.024-6.755c-0.952,0.815-1.465,1.254-2.419,2.069c3.426,4.759,6.583,9.676,9.849,14.48
						c-10.656,17.567-10.957,41.158-0.246,58.775C260.713,465.848,285.32,476.268,307.468,472.351z"/>
					<g>
						<g>
							<path style="fill:#FFFFFF;" d="M302.3,472.856c23.244-1.071,44.848-18.325,51.03-40.758
								c6.239-22.64-3.663-48.512-23.126-61.264c-19.464-12.752-47.08-11.426-65.234,3.13c-1.451,1.164-2.825,2.413-4.135,3.723
								c-6.071-2.328-12.207-4.605-18.99-6.382c3.624,5.385,7.268,10.774,11.236,16.211c-9.005,14.577-11.418,33.348-5.341,49.444
								C255.958,458.73,279.055,473.926,302.3,472.856z"/>
							<path style="fill:#DBE1E7;" d="M352.617,434.442c-32.25,24.763-84.831,12.129-103.109,6.632
								c9.423,19.541,31.042,32.782,52.792,31.781C324.727,471.823,345.622,455.722,352.617,434.442z"/>
							
								<path style="fill:none;stroke:#011635;stroke-width:1.2;stroke-linecap:round;stroke-linejoin:round;stroke-miterlimit:10;" d="
								M302.3,472.856c23.244-1.071,44.848-18.325,51.03-40.758c6.239-22.64-3.663-48.512-23.126-61.264
								c-19.464-12.752-47.08-11.426-65.234,3.13c-1.451,1.164-2.825,2.413-4.135,3.723c-6.071-2.328-12.207-4.605-18.99-6.382
								c3.624,5.385,7.268,10.774,11.236,16.211c-9.005,14.577-11.418,33.348-5.341,49.444
								C255.958,458.73,279.055,473.926,302.3,472.856z"/>
						</g>
						
							<circle style="fill:#011635;stroke:#011635;stroke-width:1.2;stroke-linecap:round;stroke-linejoin:round;stroke-miterlimit:10;" cx="300.1" cy="417.361" r="4.126"/>
						
							<circle style="fill:#011635;stroke:#011635;stroke-width:1.2;stroke-linecap:round;stroke-linejoin:round;stroke-miterlimit:10;" cx="278.795" cy="417.361" r="4.126"/>
						
							<circle style="fill:#011635;stroke:#011635;stroke-width:1.2;stroke-linecap:round;stroke-linejoin:round;stroke-miterlimit:10;" cx="321.405" cy="417.361" r="4.126"/>
					</g>
				</g>
			</g>
		</g>
		<g>
			<g style="opacity:0.12;">
				
					<path style="fill:#011635;stroke:#011635;stroke-width:1.2;stroke-linecap:round;stroke-linejoin:round;stroke-miterlimit:10;" d="
					M462.385,90.546l-157.65,5.938c-0.938,15.161-0.327,30.417,1.819,45.461c0.626,4.394,4.247,7.811,8.731,8.244
					c6.722,0.65,13.445,1.203,20.17,1.678c1.769,4.43,4.376,10.205,7.434,14.633l4.098-1.051l-1.022-12.913
					c35.722,2.03,71.552,1.562,107.804-1.62c5.085-0.447,8.991-4.626,8.981-9.653L462.385,90.546z"/>
				<path style="fill:#011635;" d="M461.268,77.018c-0.571-5.586-5.051-9.955-10.636-10.523
					c-44.511-4.529-89.127-5.096-133.478-2.022c-5.709,0.395-10.314,4.783-11.006,10.465c-2.424,19.907-2.061,39.869,0.224,60.402
					c0.628,5.639,5.121,10.053,10.771,10.561c6.923,0.624,13.854,1.152,20.79,1.605c2.479,5.806,5.141,11.672,9.053,17.941
					c2.391-5.545,4.373-11.263,5.941-17.094c32.933,1.564,65.956,1.21,98.845-1.079c6.037-0.42,10.828-5.297,11.055-11.346
					C463.56,116.35,463.267,96.594,461.268,77.018z"/>
				<path style="fill:#011635;" d="M462.827,135.93c0.305-8.144,0.419-16.32,0.32-24.5c-8.9,7.437-28.644,20.43-61.351,24.311
					c-36.668,4.35-79.351-2.628-95.978-5.822c0.171,1.803,0.352,3.609,0.554,5.421c0.628,5.639,5.121,10.053,10.771,10.561
					c6.923,0.624,13.854,1.152,20.79,1.605c2.479,5.806,5.141,11.672,9.053,17.941c2.391-5.545,4.373-11.263,5.941-17.094
					c32.933,1.564,65.956,1.21,98.845-1.079C457.809,146.856,462.6,141.978,462.827,135.93z"/>
				<path style="fill:none;stroke:#011635;stroke-width:1.2;stroke-linecap:round;stroke-linejoin:round;stroke-miterlimit:10;" d="
					M461.268,77.018c-0.571-5.586-5.051-9.955-10.636-10.523c-44.511-4.529-89.127-5.096-133.478-2.022
					c-5.709,0.395-10.314,4.783-11.006,10.465c-2.424,19.907-2.061,39.869,0.224,60.402c0.628,5.639,5.121,10.053,10.771,10.561
					c6.923,0.624,13.854,1.152,20.79,1.605c2.479,5.806,5.141,11.672,9.053,17.941c2.391-5.545,4.373-11.263,5.941-17.094
					c32.933,1.564,65.956,1.21,98.845-1.079c6.037-0.42,10.828-5.297,11.055-11.346C463.56,116.35,463.267,96.594,461.268,77.018z"
					/>
				<path style="fill:none;stroke:#011635;stroke-width:1.2;stroke-linecap:round;stroke-linejoin:round;stroke-miterlimit:10;" d="
					M372.996,95.055c24.191,0.316,48.382,0.633,72.573,0.949"/>
				<path style="fill:none;stroke:#011635;stroke-width:1.2;stroke-linecap:round;stroke-linejoin:round;stroke-miterlimit:10;" d="
					M371.737,109.136c24.934,0.19,49.868,0.379,74.803,0.569"/>
				<path style="fill:none;stroke:#011635;stroke-width:1.2;stroke-linecap:round;stroke-linejoin:round;stroke-miterlimit:10;" d="
					M371.958,123.25c7.389-0.011,14.779-0.021,22.167-0.03"/>
				<path style="fill:#011635;" d="M350.06,89.609c8.201,6.519,9.79,19.87,3.349,28.132c-6.44,8.263-19.776,9.98-28.1,3.619
					c-8.323-6.362-10.167-19.682-3.884-28.065C327.708,84.912,341.259,82.614,350.06,89.609z"/>
				<path style="fill:#011635;" d="M331.798,95.981c-1.398,4.03,2.727,8.809,6.918,8.015c4.191-0.795,6.301-6.771,3.478-10.021
					C339.397,90.755,333.197,91.95,331.798,95.981z"/>
				<path style="fill:#011635;" d="M325.309,121.36c7.864,6.009,20.191,4.802,26.961-2.314c-2.19-5.044-7.109-8.945-12.62-9.496
					c-6.685-0.67-13.505,3.66-16.035,10.316C324.148,120.394,324.706,120.9,325.309,121.36z"/>
				<path style="fill:none;stroke:#011635;stroke-width:1.2;stroke-linecap:round;stroke-linejoin:round;stroke-miterlimit:10;" d="
					M350.06,89.609c8.201,6.519,9.79,19.87,3.349,28.132c-6.44,8.263-19.776,9.98-28.1,3.619
					c-8.323-6.362-10.167-19.682-3.884-28.065C327.708,84.912,341.259,82.614,350.06,89.609z"/>
			</g>
			<g>
				<g>
					
						<path style="fill:#011635;stroke:#011635;stroke-width:1.2;stroke-linecap:round;stroke-linejoin:round;stroke-miterlimit:10;" d="
						M455.385,83.546l-157.65,5.938c-0.938,15.161-0.327,30.417,1.819,45.461c0.626,4.394,4.247,7.811,8.731,8.244
						c6.722,0.65,13.445,1.203,20.17,1.678c1.769,4.43,4.376,10.205,7.434,14.633l4.098-1.051l-1.022-12.913
						c35.722,2.03,71.552,1.562,107.804-1.62c5.085-0.447,8.991-4.626,8.981-9.653L455.385,83.546z"/>
					<g>
						<path style="fill:#FFE96B;" d="M454.268,70.018c-0.571-5.586-5.051-9.955-10.636-10.523
							c-44.511-4.529-89.127-5.096-133.478-2.022c-5.709,0.395-10.314,4.783-11.006,10.465c-2.424,19.907-2.061,39.869,0.224,60.402
							c0.628,5.639,5.121,10.053,10.771,10.561c6.923,0.624,13.854,1.152,20.79,1.605c2.479,5.806,5.141,11.672,9.053,17.941
							c2.391-5.545,4.373-11.263,5.941-17.094c32.933,1.564,65.956,1.21,98.845-1.079c6.037-0.42,10.828-5.297,11.055-11.346
							C456.56,109.35,456.267,89.594,454.268,70.018z"/>
						<path style="fill:#FFD666;" d="M455.827,128.93c0.305-8.144,0.419-16.32,0.32-24.5c-8.9,7.437-28.644,20.43-61.351,24.311
							c-36.668,4.35-79.351-2.628-95.978-5.822c0.171,1.803,0.352,3.61,0.554,5.422c0.628,5.639,5.121,10.053,10.771,10.561
							c6.923,0.624,13.854,1.152,20.79,1.605c2.479,5.806,5.141,11.672,9.053,17.941c2.391-5.545,4.373-11.263,5.941-17.094
							c32.933,1.564,65.956,1.21,98.845-1.079C450.809,139.856,455.6,134.978,455.827,128.93z"/>
						
							<path style="fill:none;stroke:#011635;stroke-width:1.2;stroke-linecap:round;stroke-linejoin:round;stroke-miterlimit:10;" d="
							M454.268,70.018c-0.571-5.586-5.051-9.955-10.636-10.523c-44.511-4.529-89.127-5.096-133.478-2.022
							c-5.709,0.395-10.314,4.783-11.006,10.465c-2.424,19.907-2.061,39.869,0.224,60.402c0.628,5.639,5.121,10.053,10.771,10.561
							c6.923,0.624,13.854,1.152,20.79,1.605c2.479,5.806,5.141,11.672,9.053,17.941c2.391-5.545,4.373-11.263,5.941-17.094
							c32.933,1.564,65.956,1.21,98.845-1.079c6.037-0.42,10.828-5.297,11.055-11.346C456.56,109.35,456.267,89.594,454.268,70.018z
							"/>
					</g>
					<g>
						<g>
							
								<path style="fill:none;stroke:#011635;stroke-width:1.2;stroke-linecap:round;stroke-linejoin:round;stroke-miterlimit:10;" d="
								M365.996,88.055c24.191,0.316,48.382,0.633,72.573,0.949"/>
							
								<path style="fill:none;stroke:#011635;stroke-width:1.2;stroke-linecap:round;stroke-linejoin:round;stroke-miterlimit:10;" d="
								M364.737,102.136c24.934,0.19,49.868,0.379,74.803,0.569"/>
							
								<path style="fill:none;stroke:#011635;stroke-width:1.2;stroke-linecap:round;stroke-linejoin:round;stroke-miterlimit:10;" d="
								M364.958,116.25c7.389-0.011,14.779-0.021,22.167-0.03"/>
						</g>
						<g>
							<path style="fill:#FFFFFF;" d="M343.06,82.609c8.201,6.519,9.79,19.87,3.349,28.132c-6.44,8.263-19.776,9.98-28.1,3.619
								c-8.323-6.362-10.167-19.682-3.884-28.065C320.708,77.912,334.259,75.614,343.06,82.609z"/>
							<g>
								<path style="fill:#011635;" d="M324.798,88.981c-1.398,4.03,2.727,8.809,6.918,8.015c4.191-0.795,6.301-6.771,3.478-10.021
									C332.397,83.755,326.197,84.95,324.798,88.981z"/>
								<path style="fill:#011635;" d="M318.309,114.36c7.864,6.009,20.191,4.802,26.961-2.314c-2.19-5.044-7.109-8.945-12.62-9.496
									c-6.685-0.67-13.505,3.66-16.035,10.316C317.148,113.394,317.706,113.9,318.309,114.36z"/>
							</g>
							
								<path style="fill:none;stroke:#011635;stroke-width:1.2;stroke-linecap:round;stroke-linejoin:round;stroke-miterlimit:10;" d="
								M343.06,82.609c8.201,6.519,9.79,19.87,3.349,28.132c-6.44,8.263-19.776,9.98-28.1,3.619
								c-8.323-6.362-10.167-19.682-3.884-28.065C320.708,77.912,334.259,75.614,343.06,82.609z"/>
						</g>
					</g>
				</g>
			</g>
		</g>
	</g>
</g>
</svg>
