<?xml version="1.0" encoding="utf-8"?>
<!-- Generator: Adobe Illustrator 27.5.0, SVG Export Plug-In . SVG Version: 6.00 Build 0)  -->
<svg version="1.1" xmlns="http://www.w3.org/2000/svg" xmlns:xlink="http://www.w3.org/1999/xlink" x="0px" y="0px"
	width="300px" height="300px" viewBox="0 0 750 500" style="enable-background:new 0 0 750 500;" xml:space="preserve">
<g id="BACKGROUND">
	<rect style="fill:#FFB840;" width="750" height="500"/>
</g>
<g id="OBJECTS">
	<g>
		<g>
			<path style="fill:#E09C28;" d="M573.347,440.2H470.223c-8.161,0-14.776-6.616-14.776-14.776v-35.188
				c0-8.161,6.616-14.776,14.776-14.776h103.124c8.161,0,14.776,6.616,14.776,14.776v35.188
				C588.123,433.584,581.507,440.2,573.347,440.2z"/>
			<path style="fill:#FFFFFF;" d="M578.785,430.754H475.661c-8.161,0-14.776-6.616-14.776-14.776V380.79
				c0-8.161,6.616-14.776,14.776-14.776h103.124c8.161,0,14.776,6.616,14.776,14.776v35.187
				C593.562,424.139,586.946,430.754,578.785,430.754z"/>
			<polygon style="fill:#FFB840;" points="496.628,376.779 503.648,391.003 519.345,393.284 507.986,404.356 510.668,419.989 
				496.628,412.608 482.588,419.989 485.269,404.356 473.911,393.284 489.608,391.003 			"/>
			<g>
				<path style="fill:#44649E;" d="M537.001,394.806c2.374,0,4.263,0.667,5.67,2c1.405,1.332,2.108,3.159,2.108,5.477
					c0,2.744-0.846,4.854-2.537,6.333c-1.691,1.478-4.11,2.217-7.257,2.217c-2.733,0-4.939-0.442-6.619-1.327v-4.486
					c0.885,0.471,1.915,0.855,3.091,1.151c1.176,0.297,2.291,0.445,3.344,0.445c3.169,0,4.754-1.298,4.754-3.898
					c0-2.474-1.641-3.713-4.922-3.713c-0.595,0-1.249,0.06-1.966,0.177c-0.717,0.117-1.3,0.243-1.747,0.379l-2.066-1.11
					l0.924-12.515h13.322v4.401h-8.77l-0.453,4.821l0.588-0.117C535.147,394.885,535.992,394.806,537.001,394.806z"/>
				<path style="fill:#44649E;" d="M560.368,385.936l-9.155,24.561h-4.654l9.155-24.561H560.368z"/>
				<path style="fill:#44649E;" d="M570.852,394.806c2.374,0,4.263,0.667,5.67,2c1.405,1.332,2.108,3.159,2.108,5.477
					c0,2.744-0.846,4.854-2.537,6.333c-1.691,1.478-4.11,2.217-7.257,2.217c-2.733,0-4.939-0.442-6.619-1.327v-4.486
					c0.885,0.471,1.915,0.855,3.091,1.151s2.291,0.445,3.344,0.445c3.169,0,4.754-1.298,4.754-3.898
					c0-2.474-1.641-3.713-4.922-3.713c-0.595,0-1.249,0.06-1.966,0.177c-0.717,0.117-1.3,0.243-1.747,0.379l-2.066-1.11
					l0.924-12.515h13.322v4.401h-8.77l-0.453,4.821l0.588-0.117C568.998,394.885,569.844,394.806,570.852,394.806z"/>
			</g>
		</g>
		<g>
			<path style="fill:#E09C28;" d="M624.293,355.479H420.131c-7.817,0-14.154-6.337-14.154-14.154V207.611
				c0-7.817,6.337-14.154,14.154-14.154h204.162c7.817,0,14.154,6.337,14.154,14.154v133.713
				C638.448,349.141,632.11,355.479,624.293,355.479z"/>
			<path style="fill:#FFFFFF;" d="M628.877,346.493H424.715c-7.817,0-14.154-6.337-14.154-14.154V198.625
				c0-7.817,6.337-14.154,14.154-14.154h204.162c7.817,0,14.154,6.337,14.154,14.154v133.713
				C643.031,340.156,636.694,346.493,628.877,346.493z"/>
			<g>
				<line style="fill:none;stroke:#4BADB0;stroke-miterlimit:10;" x1="609.031" y1="239.071" x2="444.56" y2="239.071"/>
				<line style="fill:none;stroke:#4BADB0;stroke-miterlimit:10;" x1="609.031" y1="258.414" x2="444.56" y2="258.414"/>
				<line style="fill:none;stroke:#4BADB0;stroke-miterlimit:10;" x1="609.031" y1="277.756" x2="444.56" y2="277.756"/>
				<line style="fill:none;stroke:#4BADB0;stroke-miterlimit:10;" x1="609.031" y1="297.098" x2="444.56" y2="297.098"/>
				<line style="fill:none;stroke:#4BADB0;stroke-miterlimit:10;" x1="609.031" y1="316.441" x2="444.56" y2="316.441"/>
			</g>
			<path style="fill:#44649E;" d="M628.877,184.471H424.715c-7.817,0-14.154,6.337-14.154,14.154v19.998h232.471v-19.998
				C643.031,190.808,636.694,184.471,628.877,184.471z"/>
			<g>
				<circle style="fill:none;stroke:#FFFFFF;stroke-miterlimit:10;" cx="619.403" cy="201.547" r="5.465"/>
				<circle style="fill:none;stroke:#FFFFFF;stroke-miterlimit:10;" cx="594.337" cy="201.547" r="5.465"/>
				<circle style="fill:none;stroke:#FFFFFF;stroke-miterlimit:10;" cx="569.271" cy="201.547" r="5.465"/>
			</g>
		</g>
		<g>
			<path style="fill:#E09C28;" d="M624.492,163.538H419.933c-7.708,0-13.956-6.248-13.956-13.956v-31.836
				c0-7.708,6.248-13.956,13.956-13.956h204.559c7.708,0,13.956,6.248,13.956,13.956v31.836
				C638.448,157.29,632.199,163.538,624.492,163.538z"/>
			<path style="fill:#FFFFFF;" d="M629.075,157.252H424.516c-7.708,0-13.956-6.248-13.956-13.956v-31.836
				c0-7.708,6.248-13.956,13.956-13.956h204.559c7.708,0,13.956,6.248,13.956,13.956v31.836
				C643.031,151.004,636.783,157.252,629.075,157.252z"/>
			<g>
				<polygon style="fill:#FFB840;" points="446.668,110.352 451.937,121.029 463.72,122.741 455.194,131.052 457.206,142.787 
					446.668,137.247 436.129,142.787 438.141,131.052 429.615,122.741 441.398,121.029 				"/>
				<polygon style="fill:#FFB840;" points="486.732,110.352 492.001,121.029 503.784,122.741 495.258,131.052 497.27,142.787 
					486.732,137.247 476.193,142.787 478.206,131.052 469.68,122.741 481.462,121.029 				"/>
				<polygon style="fill:#FFB840;" points="526.796,110.352 532.065,121.029 543.848,122.741 535.322,131.052 537.334,142.787 
					526.796,137.247 516.257,142.787 518.27,131.052 509.744,122.741 521.526,121.029 				"/>
				<polygon style="fill:#FFB840;" points="566.86,110.352 572.129,121.029 583.912,122.741 575.386,131.052 577.398,142.787 
					566.86,137.247 556.321,142.787 558.334,131.052 549.808,122.741 561.59,121.029 				"/>
				<polygon style="fill:#FFB840;" points="606.924,110.352 612.193,121.029 623.976,122.741 615.45,131.052 617.463,142.787 
					606.924,137.247 596.385,142.787 598.398,131.052 589.872,122.741 601.654,121.029 				"/>
			</g>
		</g>
		<g>
			<path style="fill:#E09C28;" d="M333.369,395.301H156.367c-12.052,0-21.822-9.77-21.822-21.822v0
				c0-12.052,9.77-21.822,21.822-21.822h177.002c12.052,0,21.822,9.77,21.822,21.822v0
				C355.191,385.531,345.421,395.301,333.369,395.301z"/>
		</g>
		<g>
			<path style="fill:#44649E;" d="M331.173,387.882H154.17c-12.052,0-21.822-9.77-21.822-21.822v0
				c0-12.052,9.77-21.822,21.822-21.822h177.002c12.052,0,21.822,9.77,21.822,21.822v0
				C352.995,378.112,343.225,387.882,331.173,387.882z"/>
			<g>
				<circle style="fill:none;stroke:#FFFFFF;stroke-width:2;stroke-miterlimit:10;" cx="154.448" cy="364.493" r="10.088"/>
				
					<line style="fill:none;stroke:#FFFFFF;stroke-width:2;stroke-miterlimit:10;" x1="170.893" y1="380.938" x2="161.582" y2="371.626"/>
			</g>
		</g>
		<g>
			<g>
				<path style="fill:none;stroke:#FFDFAB;stroke-width:3;stroke-miterlimit:10;" d="M136.969,101.458
					c-0.816,0.844-1.602,1.707-2.358,2.589"/>
				<path style="fill:none;stroke:#FFDFAB;stroke-width:3;stroke-miterlimit:10;stroke-dasharray:7.0747,7.0747;" d="
					M130.331,109.676c-19.686,29.345-11.083,72.483,25.201,78.164c50.702,7.939,119.145-38.221,163.757-19.985"/>
				<path style="fill:none;stroke:#FFDFAB;stroke-width:3;stroke-miterlimit:10;" d="M322.514,169.308
					c1.041,0.514,2.068,1.067,3.08,1.661"/>
			</g>
		</g>
		<g>
			<path style="fill:#E09C28;" d="M244.486,329.84h-90.049c-9.384,0-16.991-7.607-16.991-16.991V222.8
				c0-9.384,7.607-16.991,16.991-16.991h90.049c9.384,0,16.991,7.607,16.991,16.991v90.049
				C261.477,322.233,253.869,329.84,244.486,329.84z"/>
			<path style="fill:#FFFFFF;" d="M239.388,324.233h-90.049c-9.384,0-16.991-7.607-16.991-16.991v-90.049
				c0-9.384,7.607-16.991,16.991-16.991h90.049c9.384,0,16.991,7.607,16.991,16.991v90.049
				C256.379,316.626,248.772,324.233,239.388,324.233z"/>
			<path style="fill:#44649E;" d="M220.4,251.866v2.606l-12.073-9.662c-7.57-6.058-12.991-14.584-15.265-24.009l-1.578-6.538
				c-0.208-0.861-0.978-1.468-1.864-1.468c-4.135,0-7.872,1.623-10.523,4.57c-2.651,2.947-3.871,6.834-3.435,10.946l0.884,8.333
				c0.015,0.139,0.044,0.276,0.089,0.408l3.706,11.033h-23.222c-5.099,0-9.248,4.209-9.248,9.382c0,3.974,2.449,7.379,5.895,8.745
				c-1.431,1.652-2.299,3.818-2.299,6.185c0,3.974,2.449,7.379,5.895,8.744c-1.431,1.652-2.299,3.818-2.299,6.185
				c0,3.974,2.449,7.38,5.895,8.745c-1.43,1.652-2.299,3.817-2.299,6.184c0,5.173,4.149,9.383,9.248,9.383h34.129
				c6.317,0,12.649-1.425,18.364-4.12v2.202h20.458v-57.855H220.4z M219.362,303.767c-5.36,2.641-11.351,4.037-17.326,4.037h-34.129
				c-2.984,0-5.412-2.488-5.412-5.547c0-3.058,2.428-5.546,5.412-5.546c1.059,0,1.918-0.859,1.918-1.918s-0.859-1.918-1.918-1.918
				h-3.596c-2.984,0-5.412-2.488-5.412-5.547c0-3.059,2.428-5.547,5.412-5.547c1.059,0,1.918-0.859,1.918-1.918
				c0-1.059-0.859-1.918-1.918-1.918h-3.596c-2.984,0-5.412-2.488-5.412-5.546c0-3.059,2.428-5.547,5.412-5.547
				c1.059,0,1.918-0.859,1.918-1.918c0-1.059-0.859-1.918-1.918-1.918h-3.596c-2.984,0-5.412-2.488-5.412-5.547
				c0-3.058,2.428-5.547,5.412-5.547h25.889c0.617,0,1.197-0.297,1.557-0.798c0.36-0.501,0.458-1.145,0.261-1.73l-4.487-13.363
				l-0.862-8.124c-0.32-3.016,0.558-5.848,2.473-7.976c1.595-1.774,3.753-2.883,6.184-3.203l1.2,4.974
				c2.472,10.247,8.366,19.518,16.597,26.104l14.469,11.579v43.87L219.362,303.767z"/>
		</g>
		<g>
			<circle style="fill:#FFFFFF;" cx="264.69" cy="102.484" r="52.416"/>
			<polygon style="fill:#FFFFFF;" points="308.812,107.008 352.995,138.988 300.484,130.008 			"/>
			<path style="fill:#C91818;" d="M284.519,78.062c-9.141-2.672-19.828,7.031-19.828,7.031s-10.687-9.703-19.828-7.031
				s-14.685,14.286-9.563,26.437c6.047,14.344,20.531,24.187,29.391,29.531c8.859-5.344,23.344-15.187,29.391-29.531
				C299.204,92.348,293.659,80.734,284.519,78.062z"/>
		</g>
		<g>
			<polygon style="fill:#FFDFAB;" points="141.353,91.962 146.805,119.183 200.106,50.409 			"/>
			<polygon style="fill:#FFFFFF;" points="141.353,91.962 200.106,50.409 123.165,74.516 			"/>
			<polygon style="fill:#FFFFFF;" points="146.628,97.64 200.106,50.409 162.587,121.777 			"/>
		</g>
		<g>
			<polygon style="fill:#1B2963;" points="450.402,384.998 307.292,384.998 291.697,500 369.989,500 373.808,455.334 
				378.847,455.334 383.886,455.334 387.705,500 465.997,500 			"/>
			<path style="fill:#141F4A;" d="M456.759,431.879l-6.357-46.88h-143.11l-1.437,10.596
				C316.567,407.335,358.102,443.329,456.759,431.879z"/>
			<g>
				<line style="fill:none;stroke:#090E21;stroke-miterlimit:10;" x1="378.847" y1="455.334" x2="378.847" y2="400.641"/>
				<path style="fill:none;stroke:#090E21;stroke-miterlimit:10;" d="M368.632,399.422v27.677c0,5.913,4.359,10.921,10.216,11.736h0
					"/>
			</g>
			<path style="fill:#090E21;" d="M301.575,427.161l0.318-0.071c30.151-6.869,32.626-42.092,32.626-42.092h-27.226L301.575,427.161z
				"/>
			<path style="fill:#090E21;" d="M456.103,427.161l-0.318-0.071c-30.151-6.869-32.626-42.092-32.626-42.092h27.226L456.103,427.161
				z"/>
			<path style="fill:#3B8A50;" d="M487.514,189.479c-10.263-16.792-26.954-28.649-46.189-32.811l-43.696-9.455l-18.782-1.835
				l-18.782,1.835l-43.696,9.455c-19.235,4.162-35.926,16.019-46.189,32.811L233.19,250l69.083,33.736l2.161,103.452
				c0,0,33.213,14.407,74.413,14.407s74.413-14.407,74.413-14.407l2.161-103.452L524.504,250L487.514,189.479z"/>
			<path style="fill:#285E37;" d="M455.421,283.736l31.595-15.43c0,0-2.662-14.284-10.917-21.628
				c-3.275-2.913-5.251-6.966-5.613-11.335c-0.4-4.83-1.498-9.549-2.903-13.885c-1.937-5.98-10.731-4.712-10.866,1.573
				L455.421,283.736z"/>
			<polygon style="fill:#4BADB0;" points="455.801,265.979 301.893,265.979 301.28,232.644 456.414,232.644 			"/>
			<line style="fill:none;stroke:#090E21;stroke-miterlimit:10;" x1="457.21" y1="197.643" x2="455.421" y2="283.244"/>
			<polygon style="fill:#4BADB0;" points="454.869,310.176 302.825,310.176 302.125,276.841 455.569,276.841 			"/>
			<path style="fill:#4BB066;" d="M417.382,151.487l-19.753-4.274l-18.782-1.835l-18.782,1.835l-20.247,4.381
				c5.359,7.745,23.656,14.988,38.745,14.988C393.721,166.583,412.119,159.273,417.382,151.487z"/>
			<polygon style="fill:#4BB066;" points="518.76,240.602 524.504,250 455.421,283.736 455.642,272.693 			"/>
			<g>
				<path style="fill:#FFFFFF;" d="M402.975,246.471h-28.867c-4.48,0-8.113-3.632-8.113-8.113v-59.277
					c0-4.48,3.632-8.113,8.113-8.113h28.867c4.48,0,8.113,3.632,8.113,8.113v59.277
					C411.087,242.839,407.455,246.471,402.975,246.471z"/>
				<path style="fill:#1B2963;" d="M374.208,191.866L374.208,191.866c-2.165,0-3.92-1.755-3.92-3.92v-8.489
					c0-2.165,1.755-3.92,3.92-3.92l0,0c2.165,0,3.92,1.755,3.92,3.92v8.489C378.128,190.111,376.373,191.866,374.208,191.866z"/>
				<g>
					<circle style="fill:#090E21;" cx="374.208" cy="179.562" r="2.101"/>
					<circle style="fill:#090E21;" cx="374.208" cy="187.841" r="2.101"/>
				</g>
			</g>
			<path style="fill:#FF6B6B;" d="M304.683,426.352c14.23-4.309,21.722-15.222,25.638-24.756l-26.318-10.544l-16.69-82.871
				l12.397-25.696l-56.215-27.453l-10.007,25.548c-6.961,17.771-4.402,37.862,6.791,53.321l51.418,71.014L304.683,426.352z"/>
			<line style="fill:none;stroke:#7D2929;stroke-miterlimit:10;" x1="283.704" y1="287.959" x2="287.313" y2="308.181"/>
			<path style="fill:#ED4E4E;" d="M247.039,276.423l49.159,13.34l3.511-7.278l-56.215-27.453l-3.16,8.067
				C238.16,268.651,241.285,274.861,247.039,276.423z"/>
			<g>
				<path style="fill:#FF6B6B;" d="M487.017,268.307l-49.634-38.02l-25.031-32.266c-1.44-1.856-3.605-3.008-5.949-3.164
					l-28.275-1.887v7.677l21.725,2.985l-24.056,8.316l2.331,18.69l5.844-1.204l1.168,6.824l10.662-1.706l13.008,6.05
					c0,0,4.265,8.45,12.581,7.171c0,0,31.197,63.374,46.488,85.615c15.291,22.242,38.542,26.882,57.921,13.669
					c20.388-13.901,12.62-52.75,9.036-63.321c-6.024-17.768-14.596-31.669-14.596-31.669L487.017,268.307z"/>
				<path style="fill:#ED4E4E;" d="M528.953,268.904c-4.558-10.092-8.715-16.836-8.715-16.836l-33.221,16.239l10.622,8.042
					c6.14,4.649,14.6,4.727,20.825,0.194L528.953,268.904z"/>
				<line style="fill:none;stroke:#7D2929;stroke-miterlimit:10;" x1="477.878" y1="261.388" x2="515.141" y2="289.6"/>
				<polyline style="fill:none;stroke:#7D2929;stroke-miterlimit:10;" points="399.853,203.632 403.114,202.471 416.609,215.949 
									"/>
				<polyline style="fill:none;stroke:#7D2929;stroke-miterlimit:10;" points="376.908,220.855 400.538,214.529 415.548,223.983 
									"/>
				<polyline style="fill:none;stroke:#7D2929;stroke-miterlimit:10;" points="383.972,229.434 398.722,226.105 411.087,230.908 
									"/>
			</g>
			<path style="fill:#285E37;" d="M302.273,283.736l-31.595-15.43c0,0,2.662-14.284,10.917-21.628
				c3.275-2.913,5.251-6.966,5.613-11.335c0.4-4.83,1.498-9.549,2.903-13.885c1.937-5.98,10.731-4.712,10.866,1.573L302.273,283.736
				z"/>
			<polygon style="fill:#4BB066;" points="238.934,240.602 233.19,250 302.273,283.736 302.052,272.693 			"/>
			<line style="fill:none;stroke:#090E21;stroke-miterlimit:10;" x1="300.484" y1="196.643" x2="302.273" y2="282.244"/>
			<g>
				<path style="fill:#FF6B6B;" d="M397.06,147.213l-1.361-22.919h-17.136h-17.136l-1.361,22.919l-15.775,3.35
					c4.435,6.482,20.81,12.623,34.272,12.623c13.462,0,29.837-6.141,34.272-12.623L397.06,147.213z"/>
				<path style="fill:#ED4E4E;" d="M396.603,139.521l-0.904-15.226h-17.136h-17.136l-0.335,5.644
					c5.182,10.768,15.573,13.057,22.098,13.057C386.953,142.995,392.006,142.231,396.603,139.521z"/>
				<line style="fill:none;stroke:#7D2929;stroke-miterlimit:10;" x1="363.763" y1="151.795" x2="375.797" y2="157.33"/>
			</g>
			<g>
				<path style="fill:#FF6B6B;" d="M378.562,67.03c-15.502,0-27.419,1.968-27.419,1.968s0.711,18.436,2.322,38.624
					c1.689,21.16,16.642,24.987,25.097,24.987c8.454,0,23.408-3.827,25.097-24.987c1.611-20.188,2.322-38.624,2.322-38.624
					S394.064,67.03,378.562,67.03z"/>
				<path style="fill:#090E21;" d="M413.958,70.128c0-4.625-2.953-8.55-7.072-10.023c-1.208-6.045-8.278-9.408-13.327-6.51
					c-1.289-5.851-11.404-8.528-15.432-4.165c-4.028-4.363-14.143-1.686-15.432,4.165c-5.049-2.898-12.119,0.465-13.327,6.51
					c-4.119,1.472-7.072,5.398-7.072,10.023c0,3.612,1.802,6.798,4.551,8.724l3.544,18.872l2.084,0.701l2.895-17.927
					c3.69-0.858,6.646-3.63,7.757-7.217c2.882,1.92,8.81,4.44,15-1.44c6.19,5.88,12.118,3.359,15,1.44
					c1.11,3.587,4.066,6.358,7.757,7.217l2.895,17.927l2.084-0.701l3.544-18.872C412.156,76.926,413.958,73.74,413.958,70.128z"/>
				<g>
					<g>
						<ellipse style="fill:none;stroke:#FFFFFF;stroke-miterlimit:10;" cx="367.842" cy="97.71" rx="8.629" ry="9.126"/>
						<ellipse style="fill:none;stroke:#FFFFFF;stroke-miterlimit:10;" cx="389.283" cy="97.71" rx="8.629" ry="9.126"/>
						<line style="fill:none;stroke:#FFFFFF;stroke-miterlimit:10;" x1="376.4" y1="96.566" x2="380.722" y2="96.566"/>
					</g>
					<g>
						<line style="fill:none;stroke:#FFFFFF;stroke-miterlimit:10;" x1="359.508" y1="95.616" x2="349.949" y2="95.616"/>
						<line style="fill:none;stroke:#FFFFFF;stroke-miterlimit:10;" x1="407.175" y1="95.616" x2="397.617" y2="95.616"/>
					</g>
				</g>
				<path style="fill:none;stroke:#7D2929;stroke-miterlimit:10;" d="M378.128,98.425c0,0,0,2.976,0,5.231
					c0,3.18-2.192,5.26-2.192,5.26h4.718"/>
				<g>
					<circle style="fill:#090E21;" cx="367.178" cy="101.458" r="2.212"/>
					<circle style="fill:#090E21;" cx="389.947" cy="101.458" r="2.212"/>
				</g>
				<g>
					<path style="fill:none;stroke:#7D2929;stroke-miterlimit:10;" d="M369.39,109.327c0,0,4.484,6.096,16.172,3.3"/>
					<line style="fill:none;stroke:#7D2929;stroke-miterlimit:10;" x1="368.239" y1="110.206" x2="370.848" y2="108.365"/>
				</g>
				<g>
					<path style="fill:none;stroke:#090E21;stroke-width:2;stroke-miterlimit:10;" d="M360.434,86.134
						c5.233-3.577,12.605-1.853,15.273,2.048"/>
					<path style="fill:none;stroke:#090E21;stroke-width:2;stroke-miterlimit:10;" d="M396.691,86.134
						c-5.233-3.577-12.605-1.853-15.273,2.048"/>
				</g>
				<ellipse style="fill:#ED4E4E;" cx="378.562" cy="118.015" rx="2.766" ry="1.326"/>
				<g>
					<g>
						
							<ellipse transform="matrix(0.9713 -0.238 0.238 0.9713 -14.3938 85.7253)" style="fill:#FF6B6B;" cx="347.893" cy="102.484" rx="7.884" ry="10.313"/>
						<path style="fill:none;stroke:#7D2929;stroke-miterlimit:10;" d="M343.48,99.113c1.795-5.043,7.587-3.959,9.514,3.372"/>
					</g>
					<g>
						
							<ellipse transform="matrix(0.238 -0.9713 0.9713 0.238 212.3137 475.5754)" style="fill:#FF6B6B;" cx="409.232" cy="102.484" rx="10.313" ry="7.884"/>
						<path style="fill:none;stroke:#7D2929;stroke-miterlimit:10;" d="M413.644,99.113c-1.795-5.043-7.587-3.959-9.514,3.372"/>
					</g>
				</g>
			</g>
		</g>
		<g>
			<path style="opacity:0.22;" d="M635.347,349.279l-4.425-5.576l-62.778-79.096c0,0,0,0,0,0l-0.761-0.958
				c-0.607-0.764-1.343-1.417-2.174-1.927l-17.282-10.609c-0.361-0.222-0.803,0.128-0.669,0.531l6.408,19.24
				c0.308,0.926,0.777,1.791,1.383,2.555l0.761,0.958c0,0,0,0,0,0l62.778,79.096l4.425,5.576c2.703,3.406,7.656,3.976,11.062,1.272
				C637.481,357.638,638.05,352.685,635.347,349.279z"/>
			<g>
				<path style="fill:#FF6B6B;" d="M547.322,251.717l8.565,18.381c0.412,0.885,0.976,1.69,1.666,2.38l10.596,10.596l11.135-11.135
					l-10.596-10.596c-0.69-0.69-1.496-1.254-2.38-1.666l-18.381-8.565C547.542,250.934,547.143,251.333,547.322,251.717z"/>
				<path style="fill:#44649E;" d="M561.228,265.02c-3.075,3.075-4.333,6.802-2.81,8.325l71.405,71.405l11.135-11.135
					l-71.405-71.405C568.03,260.687,564.303,261.945,561.228,265.02z"/>
				<path style="fill:#090E21;" d="M551.071,254.862c0.556-0.556,1.133-1.05,1.714-1.485l-4.859-2.264
					c-0.384-0.179-0.783,0.219-0.604,0.604l2.264,4.859C550.021,255.994,550.515,255.418,551.071,254.862z"/>
				<g>
					<line style="fill:none;stroke:#FFFFFF;stroke-miterlimit:10;" x1="560.932" y1="269.046" x2="628.634" y2="336.748"/>
					<line style="fill:none;stroke:#FFFFFF;stroke-miterlimit:10;" x1="565.255" y1="264.723" x2="632.957" y2="332.425"/>
				</g>
				<path style="fill:#FFFFFF;" d="M632.633,336.424c-3.075,3.075-4.333,6.802-2.81,8.325l5.033,5.033
					c3.075,3.075,8.06,3.075,11.135,0c3.075-3.075,3.075-8.06,0-11.135l-5.033-5.033
					C639.435,332.091,635.708,333.349,632.633,336.424z"/>
			</g>
		</g>
		<g>
			<path style="fill:#FFFFFF;" d="M281.517,431.634c-9.252,1.926-11.849,4.522-13.775,13.775c-0.198,0.952-1.562,0.952-1.76,0
				c-1.926-9.252-4.522-11.849-13.775-13.775c-0.952-0.198-0.952-1.562,0-1.76c9.252-1.926,11.849-4.522,13.775-13.775
				c0.198-0.952,1.562-0.952,1.76,0c1.926,9.252,4.522,11.849,13.775,13.775C282.47,430.073,282.47,431.436,281.517,431.634z"/>
			<path style="fill:#FFFFFF;" d="M461.322,67.91c-9.252,1.926-11.849,4.522-13.775,13.775c-0.198,0.952-1.562,0.952-1.76,0
				c-1.926-9.252-4.522-11.849-13.775-13.775c-0.952-0.198-0.952-1.562,0-1.76c9.252-1.926,11.849-4.522,13.775-13.775
				c0.198-0.952,1.562-0.952,1.76,0c1.926,9.252,4.522,11.849,13.775,13.775C462.275,66.349,462.275,67.712,461.322,67.91z"/>
			<path style="fill:#FFFFFF;" d="M631.863,390.579c-7.866,1.638-10.074,3.845-11.712,11.712c-0.169,0.81-1.328,0.81-1.496,0
				c-1.638-7.866-3.845-10.074-11.712-11.712c-0.81-0.169-0.81-1.328,0-1.496c7.866-1.638,10.074-3.845,11.712-11.712
				c0.169-0.81,1.328-0.81,1.496,0c1.638,7.866,3.845,10.074,11.712,11.712C632.673,389.251,632.673,390.41,631.863,390.579z"/>
			<path style="fill:#FFFFFF;" d="M517.955,71.679c-5.184,1.079-6.639,2.534-7.718,7.718c-0.111,0.534-0.875,0.534-0.986,0
				c-1.079-5.184-2.534-6.639-7.718-7.718c-0.534-0.111-0.534-0.875,0-0.986c5.184-1.079,6.639-2.534,7.718-7.718
				c0.111-0.534,0.875-0.534,0.986,0c1.079,5.184,2.534,6.639,7.718,7.718C518.488,70.804,518.488,71.568,517.955,71.679z"/>
			<path style="fill:#FFFFFF;" d="M194.264,156.474c-5.184,1.079-6.639,2.534-7.718,7.718c-0.111,0.534-0.875,0.534-0.986,0
				c-1.079-5.184-2.534-6.639-7.718-7.718c-0.534-0.111-0.534-0.875,0-0.986c5.184-1.079,6.639-2.534,7.718-7.718
				c0.111-0.534,0.875-0.534,0.986,0c1.079,5.184,2.534,6.639,7.718,7.718C194.798,155.599,194.798,156.363,194.264,156.474z"/>
			<path style="fill:#FFFFFF;" d="M216.928,415.878c-5.184,1.079-6.639,2.534-7.718,7.718c-0.111,0.534-0.875,0.534-0.986,0
				c-1.079-5.184-2.534-6.639-7.718-7.718c-0.534-0.111-0.534-0.875,0-0.986c5.184-1.079,6.639-2.534,7.718-7.718
				c0.111-0.534,0.875-0.534,0.986,0c1.079,5.184,2.534,6.639,7.718,7.718C217.462,415.003,217.462,415.767,216.928,415.878z"/>
		</g>
	</g>
</g>
</svg>
