<?xml version="1.0" encoding="utf-8"?>
<!-- Generator: Adobe Illustrator 27.5.0, SVG Export Plug-In . SVG Version: 6.00 Build 0)  -->
<svg version="1.1" xmlns="http://www.w3.org/2000/svg" xmlns:xlink="http://www.w3.org/1999/xlink" x="0px" y="0px"
	 viewBox="0 0 500 500" style="enable-background:new 0 0 500 500;" xml:space="preserve">
<g id="BACKGROUND">
</g>
<g id="OBJECTS">
	<path style="fill:#F0F1F5;" d="M63.741,455.475C-58.891,296.94,90.063,230.877,112.665,127.9
		C135.391,24.361,247.709,23.443,341.589,86.381c93.88,62.938,184.616,136.887,121.689,241.458
		c-54.532,90.62-45.553,84.409-37.302,128.473L63.741,455.475z"/>
	<g>
		<g>
			<g>
				
					<ellipse transform="matrix(0.7071 -0.7071 0.7071 0.7071 -172.7622 327.7853)" style="fill:#FFFFFF;" cx="309.291" cy="372.435" rx="8.656" ry="8.656"/>
				
					<ellipse transform="matrix(0.9247 -0.3807 0.3807 0.9247 -116.7369 154.6381)" style="fill:#FFFFFF;" cx="332.564" cy="372.435" rx="8.656" ry="8.656"/>
				
					<ellipse transform="matrix(0.9247 -0.3807 0.3807 0.9247 -114.9847 163.4974)" style="fill:#FFFFFF;" cx="355.836" cy="372.435" rx="8.656" ry="8.656"/>
				
					<ellipse transform="matrix(0.2306 -0.973 0.973 0.2306 -70.7131 655.4396)" style="fill:#FFFFFF;" cx="379.109" cy="372.435" rx="8.656" ry="8.656"/>
			</g>
			<g>
				
					<ellipse transform="matrix(0.2289 -0.9734 0.9734 0.2289 -148.1803 607.3737)" style="fill:#FFFFFF;" cx="309.291" cy="397.22" rx="8.656" ry="8.656"/>
				
					<ellipse transform="matrix(0.1598 -0.9872 0.9872 0.1598 -112.6823 662.056)" style="fill:#FFFFFF;" cx="332.564" cy="397.22" rx="8.656" ry="8.656"/>
				
					<ellipse transform="matrix(0.1598 -0.9872 0.9872 0.1598 -93.1273 685.03)" style="fill:#FFFFFF;" cx="355.836" cy="397.22" rx="8.656" ry="8.656"/>
				
					<ellipse transform="matrix(0.7071 -0.7071 0.7071 0.7071 -169.8383 384.4138)" style="fill:#FFFFFF;" cx="379.109" cy="397.22" rx="8.656" ry="8.656"/>
			</g>
			<g>
				<circle style="fill:#FFFFFF;" cx="309.291" cy="422.005" r="8.656"/>
				<circle style="fill:#FFFFFF;" cx="332.564" cy="422.005" r="8.656"/>
				<circle style="fill:#FFFFFF;" cx="355.836" cy="422.005" r="8.656"/>
				<circle style="fill:#FFFFFF;" cx="379.109" cy="422.005" r="8.656"/>
			</g>
		</g>
		<g>
			<g>
				<circle style="fill:#FFFFFF;" cx="215.761" cy="64.135" r="8.656"/>
				<circle style="fill:#FFFFFF;" cx="239.034" cy="64.135" r="8.656"/>
				<circle style="fill:#FFFFFF;" cx="262.306" cy="64.135" r="8.656"/>
			</g>
			<g>
				<circle style="fill:#FFFFFF;" cx="192.488" cy="88.92" r="8.656"/>
				<circle style="fill:#FFFFFF;" cx="215.761" cy="88.92" r="8.656"/>
				<circle style="fill:#FFFFFF;" cx="239.034" cy="88.92" r="8.656"/>
				<circle style="fill:#FFFFFF;" cx="262.306" cy="88.92" r="8.656"/>
			</g>
			<g>
				
					<ellipse transform="matrix(0.9185 -0.3955 0.3955 0.9185 -29.2756 85.3965)" style="fill:#FFFFFF;" cx="192.488" cy="113.705" rx="8.656" ry="8.656"/>
				
					<ellipse transform="matrix(0.2306 -0.973 0.973 0.2306 55.3643 297.429)" style="fill:#FFFFFF;" cx="215.761" cy="113.705" rx="8.656" ry="8.656"/>
				
					<ellipse transform="matrix(0.9247 -0.3807 0.3807 0.9247 -25.2875 99.5542)" style="fill:#FFFFFF;" cx="239.034" cy="113.705" rx="8.656" ry="8.656"/>
				
					<ellipse transform="matrix(0.9247 -0.3807 0.3807 0.9247 -23.5353 108.4135)" style="fill:#FFFFFF;" cx="262.306" cy="113.705" rx="8.656" ry="8.656"/>
			</g>
		</g>
	</g>
	<g>
		<g>
			<path style="fill:#DD5747;" d="M462.259,410.197v46.049H269.092c-5.127,0-9.492-3.881-11.126-9.309
				c-0.456-1.483-0.701-3.087-0.701-4.764V424.27c0-1.774,0.279-3.467,0.783-5.031c1.695-5.282,6.006-9.041,11.044-9.041H462.259z"
				/>
			<path style="fill:#E4786B;" d="M359.762,419.239v27.699H257.966c-0.456-1.483-0.701-3.087-0.701-4.764V424.27
				c0-1.774,0.279-3.467,0.783-5.031H359.762z"/>
			<path style="fill:#E4786B;" d="M363.939,410.197h94.894v46.053h-94.894c-9.593,0-17.369-7.777-17.369-17.37v-11.314
				C346.57,417.974,354.346,410.197,363.939,410.197z"/>
			<path style="fill:#E4786B;" d="M464.583,410.197H446.44v6.899h18.143c1.601,0,2.899-1.545,2.899-3.45l0,0
				C467.482,411.741,466.184,410.197,464.583,410.197z"/>
			<path style="fill:#E4786B;" d="M464.466,449.346H446.44v6.899h18.026c1.665,0,3.016-1.35,3.016-3.016v-0.868
				C467.482,450.696,466.132,449.346,464.466,449.346z"/>
			<g>
				<path style="fill:#D5D7E3;" d="M366.174,417.101h96.084v32.245h-96.084c-6.717,0-12.162-5.445-12.162-12.162v-7.921
					C354.013,422.546,359.458,417.101,366.174,417.101z"/>
				<path style="fill:#FFFFFF;" d="M370.935,421.337h91.323v28.008h-98.81c-2.582,0-4.675-2.093-4.675-4.675v-11.172
					C358.773,426.783,364.218,421.337,370.935,421.337z"/>
				<g>
					<defs>
						<path id="SVGID_1_" d="M370.935,421.337h91.323v28.008h-99.092c-2.426,0-4.392-1.967-4.392-4.393v-11.454
							C358.773,426.783,364.218,421.337,370.935,421.337z"/>
					</defs>
					<clipPath id="SVGID_00000117673680908109454850000017396823684893428384_">
						<use xlink:href="#SVGID_1_"  style="overflow:visible;"/>
					</clipPath>
					<g style="clip-path:url(#SVGID_00000117673680908109454850000017396823684893428384_);">
						<line style="fill:none;stroke:#F0F1F5;stroke-miterlimit:10;" x1="357.924" y1="424.979" x2="462.258" y2="424.979"/>
						<line style="fill:none;stroke:#F0F1F5;stroke-miterlimit:10;" x1="354.369" y1="431.399" x2="462.258" y2="431.399"/>
						<line style="fill:none;stroke:#F0F1F5;stroke-miterlimit:10;" x1="354.369" y1="437.819" x2="462.258" y2="437.819"/>
						<line style="fill:none;stroke:#F0F1F5;stroke-miterlimit:10;" x1="354.369" y1="444.24" x2="462.258" y2="444.24"/>
					</g>
				</g>
				<polyline style="fill:#DED7D2;" points="387.763,424.979 387.763,446.938 380.211,442.495 372.66,446.938 372.66,424.979 				
					"/>
				<polygon style="fill:#C43F00;" points="393.109,442.495 383.93,437.658 378.237,442.495 372.66,424.979 387.532,424.979 				"/>
			</g>
			<line style="fill:#F1F4F6;" x1="374.428" y1="423.609" x2="385.852" y2="423.609"/>
			<path style="fill:#EAA105;" d="M347.913,456.242h-11.72c-5.127,0-9.484-3.872-11.129-9.304h11.72
				C338.43,452.37,342.786,456.242,347.913,456.242z"/>
			<path style="fill:#EAA105;" d="M336.868,419.236h-11.72c1.709-5.285,6.002-9.04,11.045-9.04h11.72
				C342.871,410.195,338.577,413.951,336.868,419.236z"/>
			<path style="fill:#EAA105;" d="M330.94,456.242h-11.72c-5.127,0-9.484-3.872-11.129-9.304h11.72
				C321.456,452.37,325.813,456.242,330.94,456.242z"/>
			<path style="fill:#EAA105;" d="M319.895,419.236h-11.72c1.709-5.285,6.002-9.04,11.045-9.04h11.72
				C325.897,410.195,321.604,413.951,319.895,419.236z"/>
		</g>
		<path style="fill:#EFB945;" d="M336.088,442.169c0,1.677,0.243,3.281,0.696,4.768h-11.72c-0.454-1.487-0.696-3.091-0.696-4.768
			v-17.902c0-1.772,0.274-3.471,0.781-5.032h11.72c-0.506,1.561-0.781,3.26-0.781,5.032V442.169z"/>
		<path style="fill:#EFB945;" d="M319.114,442.169c0,1.677,0.243,3.281,0.696,4.768h-11.72c-0.454-1.487-0.696-3.091-0.696-4.768
			v-17.902c0-1.772,0.274-3.471,0.781-5.032h11.72c-0.506,1.561-0.781,3.26-0.781,5.032V442.169z"/>
		<path style="fill:#EAA105;" d="M288.604,456.242h-11.72c-5.127,0-9.484-3.872-11.129-9.304h11.72
			C279.12,452.37,283.477,456.242,288.604,456.242z"/>
		<path style="fill:#EAA105;" d="M277.559,419.236h-11.72c1.709-5.285,6.002-9.04,11.045-9.04h11.72
			C283.561,410.195,279.268,413.951,277.559,419.236z"/>
		<path style="fill:#FFD47A;" d="M276.779,442.169c0,1.677,0.243,3.281,0.696,4.768h-11.72c-0.454-1.487-0.696-3.091-0.696-4.768
			v-17.902c0-1.772,0.274-3.471,0.781-5.032h11.72c-0.506,1.561-0.781,3.26-0.781,5.032V442.169z"/>
	</g>
	<g>
		<g>
			<g>
				<g>
					<g>
						<path style="fill:#C5C8D8;" d="M300.57,449.98c-14.53-2.413-25.181-15.13-25.181-29.711c0-2.168,0.238-4.379,0.73-6.604
							l1.525-7.081l6.684-31.026H174.852l-6.705,31.026l-2.811,12.999c-4.191,18.851,10.152,36.727,29.458,36.727h110.79v-5.918
							C303.872,450.392,302.195,450.255,300.57,449.98z M215.572,397.22c1.236-8.591,9.205-15.549,17.789-15.549
							c1.171,0,2.283,0.13,3.345,0.376c6.734,1.546,11.04,7.753,9.964,15.173c-0.506,3.519-2.139,6.763-4.48,9.364
							c-2.608,2.897-6.091,5.007-9.885,5.809c-1.12,0.246-2.269,0.376-3.425,0.376c-5.072,0-9.227-2.428-11.518-6.185
							C215.76,403.983,215.066,400.739,215.572,397.22z"/>
						<path style="fill:#FFFFFF;stroke:#C5C8D8;stroke-miterlimit:10;" d="M303.901,443.492c-1.532-1.207-2.941-2.565-4.205-4.046
							c-1.72-2.001-3.179-4.234-4.328-6.626c-0.347-0.73-0.672-1.481-0.961-2.24c-0.715-1.85-1.25-3.779-1.575-5.773
							c-0.629-3.707-0.564-7.608,0.311-11.554l1.438-6.669l6.676-31.026H181.492l-6.72,31.026l-3.136,14.487
							c-0.282,1.25-0.448,2.5-0.52,3.736c-0.13,1.965,0,3.902,0.347,5.773c0.137,0.759,0.318,1.503,0.535,2.24
							c0.679,2.37,1.734,4.603,3.092,6.626c0.99,1.474,2.139,2.832,3.425,4.046c4.212,3.996,9.913,6.488,16.315,6.488h127.777
							C315.461,449.98,308.995,447.531,303.901,443.492z M222.342,397.22c1.069-7.435,7.175-13.642,14.364-15.173
							c1.12-0.246,2.269-0.376,3.425-0.376c8.591,0,14.552,6.958,13.309,15.549c-0.506,3.519-2.139,6.763-4.487,9.364
							c-3.374,3.757-8.23,6.185-13.302,6.185c-1.171,0-2.283-0.13-3.346-0.376c-3.54-0.809-6.416-2.919-8.172-5.809
							C222.53,403.983,221.837,400.739,222.342,397.22z"/>
						<rect x="218.155" y="449.98" style="fill:#FFFFFF;stroke:#C5C8D8;stroke-miterlimit:10;" width="125.694" height="6.329"/>
					</g>
					<path style="fill:#C5C8D8;" d="M301.255,375.56l-5.344,24.843h-50.014c0.351-1.033,0.611-2.095,0.772-3.188
						c1.083-7.419-3.228-13.625-9.965-15.169c-7.188,1.534-13.294,7.74-14.357,15.169c-0.16,1.093-0.201,2.155-0.14,3.188h-52.721
						l5.364-24.843H301.255z"/>
				</g>
				<path style="fill:#C5C8D8;" d="M427.868,117.067H64.305c-9.731,0-17.62,7.889-17.62,17.62v232.522
					c0,9.731,7.889,17.62,17.62,17.62h363.564c9.731,0,17.62-7.889,17.62-17.62V134.688
					C445.488,124.956,437.599,117.067,427.868,117.067z"/>
				<path style="fill:#FFFFFF;stroke:#C5C8D8;stroke-miterlimit:10;" d="M453.949,133.041v235.815c0,8.819-7.213,15.97-16.108,15.97
					H71.256c-8.895,0-16.108-7.151-16.108-15.97V133.041c0-8.828,7.213-15.97,16.108-15.97h366.585
					c7.89,0,14.454,5.619,15.834,13.052C453.858,131.065,453.949,132.044,453.949,133.041z"/>
				<path style="fill:#C5C8D8;" d="M432.422,125.369H76.815c-7.341,0-13.293,5.951-13.293,13.293v224.574
					c0,7.341,5.951,13.293,13.293,13.293h355.607c7.341,0,13.293-5.951,13.293-13.293V138.661
					C445.715,131.32,439.764,125.369,432.422,125.369z"/>
				<path style="fill:#F0F1F5;" d="M425.717,130.653H76.815c-7.341,0-13.293,5.951-13.293,13.293v219.289
					c0,7.341,5.951,13.293,13.293,13.293h348.902c7.341,0,13.293-5.951,13.293-13.293V143.946
					C439.01,136.604,433.058,130.653,425.717,130.653z"/>
				<path style="fill:#E1E2EA;" d="M439.006,143.007v2.035H63.521v-2.035c0-6.824,5.531-12.355,12.355-12.355h350.775
					C433.475,130.652,439.006,136.183,439.006,143.007z"/>
				<g>
					<path style="fill:#FFFFFF;" d="M80.753,137.847c0,1.883-1.526,3.409-3.409,3.409c-1.883,0-3.409-1.526-3.409-3.409
						c0-1.883,1.526-3.409,3.409-3.409C79.227,134.438,80.753,135.964,80.753,137.847z"/>
					<path style="fill:#FFFFFF;" d="M92.732,137.847c0,1.883-1.526,3.409-3.409,3.409s-3.409-1.526-3.409-3.409
						c0-1.883,1.526-3.409,3.409-3.409S92.732,135.964,92.732,137.847z"/>
					<path style="fill:#FFFFFF;" d="M104.711,137.847c0,1.883-1.526,3.409-3.409,3.409c-1.883,0-3.409-1.526-3.409-3.409
						c0-1.883,1.526-3.409,3.409-3.409C103.185,134.438,104.711,135.964,104.711,137.847z"/>
				</g>
			</g>
			<g>
				<g>
					<g>
						<path style="opacity:0.3;fill:#C5C8D8;" d="M401.941,158.519h-83.73c-5.775,0-10.457,4.682-10.457,10.457v176.246
							c0,5.775,4.682,10.457,10.457,10.457h83.73c5.775,0,10.457-4.682,10.457-10.457V168.976
							C412.398,163.201,407.716,158.519,401.941,158.519z"/>
						<path style="fill:#FBFBFC;" d="M319.747,162.32v179.635c0,5.995,4.86,10.856,10.855,10.856h90.856
							c5.995,0,10.856-4.854,10.856-10.849c0-21.552,0-158.096,0-179.648c0-5.995-4.85-10.849-10.845-10.849
							c-35.793,0-55.083,0-90.877,0C324.597,151.464,319.747,156.324,319.747,162.32z"/>
					</g>
					<g>
						<path style="opacity:0.3;fill:#C5C8D8;" d="M284.352,158.519h-83.73c-5.775,0-10.457,4.682-10.457,10.457v176.246
							c0,5.775,4.682,10.457,10.457,10.457h83.73c5.775,0,10.457-4.682,10.457-10.457V168.976
							C294.809,163.201,290.127,158.519,284.352,158.519z"/>
						<path style="fill:#FFFFFF;" d="M200.981,162.32v179.635c0,5.995,4.86,10.856,10.855,10.856h90.856
							c5.995,0,10.856-4.854,10.856-10.849c0-21.552,0-158.096,0-179.648c0-5.995-4.85-10.849-10.845-10.849
							c-35.793,0-55.083,0-90.877,0C205.831,151.464,200.981,156.324,200.981,162.32z"/>
					</g>
					<g>
						<path style="opacity:0.3;fill:#C5C8D8;" d="M166.105,158.519h-83.73c-5.775,0-10.457,4.682-10.457,10.457v176.246
							c0,5.775,4.682,10.457,10.457,10.457h83.73c5.775,0,10.457-4.682,10.457-10.457V168.976
							C176.561,163.201,171.88,158.519,166.105,158.519z"/>
						<path style="fill:#FBFBFC;" d="M81.549,162.32v179.635c0,5.995,4.86,10.856,10.856,10.856h90.856
							c5.995,0,10.855-4.854,10.856-10.849c0-21.552,0-158.096,0-179.648c0-5.995-4.85-10.849-10.845-10.849
							c-35.794,0-55.083,0-90.877,0C86.399,151.464,81.549,156.324,81.549,162.32z"/>
					</g>
				</g>
				<g>
					
						<line style="fill:none;stroke:#E1E2EA;stroke-width:5;stroke-linecap:round;stroke-linejoin:round;stroke-miterlimit:10;" x1="221.293" y1="271.406" x2="293.236" y2="271.406"/>
					
						<line style="fill:none;stroke:#E1E2EA;stroke-width:5;stroke-linecap:round;stroke-linejoin:round;stroke-miterlimit:10;" x1="221.293" y1="283.27" x2="293.236" y2="283.27"/>
					
						<line style="fill:none;stroke:#E1E2EA;stroke-width:5;stroke-linecap:round;stroke-linejoin:round;stroke-miterlimit:10;" x1="221.293" y1="295.134" x2="293.236" y2="295.134"/>
					
						<line style="fill:none;stroke:#E1E2EA;stroke-width:5;stroke-linecap:round;stroke-linejoin:round;stroke-miterlimit:10;" x1="239.727" y1="306.811" x2="274.802" y2="306.811"/>
					
						<line style="fill:none;stroke:#E1E2EA;stroke-width:5;stroke-linecap:round;stroke-linejoin:round;stroke-miterlimit:10;" x1="221.293" y1="168.495" x2="293.236" y2="168.495"/>
				</g>
				<g>
					
						<line style="fill:none;stroke:#E1E2EA;stroke-width:5;stroke-linecap:round;stroke-linejoin:round;stroke-miterlimit:10;" x1="101.861" y1="271.406" x2="173.804" y2="271.406"/>
					
						<line style="fill:none;stroke:#E1E2EA;stroke-width:5;stroke-linecap:round;stroke-linejoin:round;stroke-miterlimit:10;" x1="101.861" y1="283.27" x2="173.804" y2="283.27"/>
					
						<line style="fill:none;stroke:#E1E2EA;stroke-width:5;stroke-linecap:round;stroke-linejoin:round;stroke-miterlimit:10;" x1="101.861" y1="295.134" x2="173.804" y2="295.134"/>
					
						<line style="fill:none;stroke:#E1E2EA;stroke-width:5;stroke-linecap:round;stroke-linejoin:round;stroke-miterlimit:10;" x1="120.295" y1="306.811" x2="155.37" y2="306.811"/>
					
						<line style="fill:none;stroke:#E1E2EA;stroke-width:5;stroke-linecap:round;stroke-linejoin:round;stroke-miterlimit:10;" x1="101.861" y1="168.495" x2="173.804" y2="168.495"/>
				</g>
				<g>
					
						<line style="fill:none;stroke:#E1E2EA;stroke-width:5;stroke-linecap:round;stroke-linejoin:round;stroke-miterlimit:10;" x1="340.06" y1="271.406" x2="412.003" y2="271.406"/>
					
						<line style="fill:none;stroke:#E1E2EA;stroke-width:5;stroke-linecap:round;stroke-linejoin:round;stroke-miterlimit:10;" x1="340.06" y1="283.27" x2="412.003" y2="283.27"/>
					
						<line style="fill:none;stroke:#E1E2EA;stroke-width:5;stroke-linecap:round;stroke-linejoin:round;stroke-miterlimit:10;" x1="340.06" y1="295.134" x2="412.003" y2="295.134"/>
					
						<line style="fill:none;stroke:#E1E2EA;stroke-width:5;stroke-linecap:round;stroke-linejoin:round;stroke-miterlimit:10;" x1="358.494" y1="306.811" x2="393.568" y2="306.811"/>
					
						<line style="fill:none;stroke:#E1E2EA;stroke-width:5;stroke-linecap:round;stroke-linejoin:round;stroke-miterlimit:10;" x1="340.06" y1="168.495" x2="412.003" y2="168.495"/>
				</g>
				<g>
					
						<ellipse transform="matrix(0.138 -0.9904 0.9904 0.138 -97.9731 325.1853)" style="fill:#D5D7E3;" cx="137.832" cy="218.878" rx="37.019" ry="37.019"/>
					<g>
						<defs>
							
								<ellipse id="SVGID_00000178201974849453592170000001412670436839253915_" transform="matrix(0.138 -0.9904 0.9904 0.138 -97.9731 325.1853)" cx="137.832" cy="218.878" rx="37.019" ry="37.019"/>
						</defs>
						<clipPath id="SVGID_00000032616231979045060330000000670242738436181679_">
							<use xlink:href="#SVGID_00000178201974849453592170000001412670436839253915_"  style="overflow:visible;"/>
						</clipPath>
						<g style="clip-path:url(#SVGID_00000032616231979045060330000000670242738436181679_);">
							<path style="fill:#FFB72F;" d="M155.545,235.799c12.068,5.996,14.86,37.242,14.86,37.242l-22.734,3.406L155.545,235.799z"/>
							<path style="fill:#FFB72F;" d="M155.447,235.801l3.995,9.605l-6.604,15.968l-0.146,2.39l-0.466,7.574l-0.584,9.519h-31.629
								l-0.028-0.285l-3.558-41.467l-0.222-2.626l9.234-2.467l18.952-1.544l5.84,1.836c0,0.007,0,0.007,0,0.007L155.447,235.801z"/>
							<g>
								<g>
									<g>
										<g>
											<path style="fill:#FFB72F;" d="M108.193,245.195c-0.733,6.618-1.84,28.165-0.312,45.584l13.485-5.299
												c10.112-43.144-0.215-50.322-0.215-50.322S109.222,235.906,108.193,245.195z"/>
										</g>
									</g>
								</g>
							</g>
							<g>
								<g>
									<path d="M126.363,202.575c9.999-0.202,6.182-14.994-2.986-14.315S114.476,202.815,126.363,202.575z"/>
								</g>
							</g>
							<g>
								<g>
									<path style="fill:#A25943;" d="M139.181,241.82l-10.102,0.323l-0.71-22.235l17.838-0.57l0.463,14.499
										C146.807,238.109,143.454,241.684,139.181,241.82z"/>
								</g>
							</g>
							<g>
								<g>
									<path style="fill:#83442D;" d="M146.562,229.001L146.562,229.001c-6.949,1.855-12.992,1.008-12.497-11.723l0,0
										l12.111-0.387L146.562,229.001z"/>
								</g>
							</g>
							<g>
								<g>
									<path style="fill:#E89400;" d="M148.898,229.043c-1.951-0.831-3.398-2.682-3.603-4.939
										c-0.297-3.265,2.121-6.164,5.387-6.462c3.264-0.293,6.165,2.121,6.461,5.388c0.144,1.581-0.337,3.125-1.355,4.345
										c-1.018,1.221-2.449,1.972-4.031,2.116C150.747,229.584,149.772,229.416,148.898,229.043z M153.058,219.23
										c-0.692-0.295-1.464-0.428-2.264-0.355c-2.588,0.235-4.503,2.532-4.268,5.119c0.235,2.585,2.532,4.499,5.119,4.267
										c1.253-0.113,2.388-0.709,3.193-1.676c0.806-0.967,1.187-2.189,1.074-3.443
										C155.751,221.355,154.604,219.889,153.058,219.23z"/>
								</g>
							</g>
							<g>
								<g>
									<path style="fill:#A25943;" d="M139.661,195.683l1.753-0.159c7.199-0.653,13.565,4.654,14.217,11.853l0.559,6.169
										c0.609,6.711-4.338,12.645-11.049,13.253l-12.468,1.131c-1.77,0.161-3.335-1.144-3.495-2.914l-1.371-15.116
										C127.155,202.701,132.462,196.335,139.661,195.683z"/>
								</g>
							</g>
							<path d="M152.837,211.23c0,1.076-0.61,1.949-1.362,1.949c-0.752,0-1.362-0.872-1.362-1.949c0-1.076,0.61-1.949,1.362-1.949
								C152.227,209.281,152.837,210.154,152.837,211.23z"/>
							<g>
								<g>
									<path d="M127.696,214.84c0,0,13.643-3.191,14.821-19.275C120.808,193.555,123.012,210.568,127.696,214.84z"/>
								</g>
							</g>
							<g>
								<g>
									<path style="fill:#A25943;" d="M133.294,216.322c-3.29-6.403-6.339-6.88-8.82-5.622
										c-4.547,2.304-2.717,13.094,5.675,10.919L133.294,216.322z"/>
								</g>
							</g>
							<g>
								<g>
									<path d="M137.498,195.488c0,0,14.124-0.944,18.373,14.53C156.172,196.862,147.668,194.115,137.498,195.488z"/>
								</g>
							</g>
							<g>
								<g>
									<path d="M151.163,203.92c-3.242-0.043-3.387-1.779-0.9-2.121C152.938,201.432,155.197,203.973,151.163,203.92z"/>
								</g>
							</g>
							<g>
								<g>
									<path d="M139.805,204.95c-3.243-0.043-3.387-1.779-0.9-2.121C141.58,202.462,143.84,205.003,139.805,204.95z"/>
								</g>
							</g>
							<g>
								<g>
									<path style="fill:#FDFAF7;" d="M147.294,219.008c-0.968-0.196-2.552-0.364-4.692-0.086
										c-0.592,0.077-0.919,0.761-0.584,1.255c2.463,3.638,4.716,1.544,5.766,0.122
										C148.142,219.813,147.886,219.128,147.294,219.008z"/>
								</g>
							</g>
							<g>
								<g>
									<path style="fill:#74391E;" d="M147.918,218.239l0.15-1.228c1.233,0.151,2.05-0.583,2.402-1.32
										c0.348-0.727,0.407-1.809-0.472-2.661c-1.124-1.092-2.303-2.378-3.319-4.379l1.103-0.559c0.933,1.84,2.03,3.035,3.077,4.05
										c1.112,1.079,1.397,2.681,0.726,4.082C150.91,217.639,149.47,218.428,147.918,218.239z"/>
								</g>
							</g>
							<g>
								<g>
									
										<rect x="126.713" y="213.566" transform="matrix(0.6339 -0.7734 0.7734 0.6339 -120.7862 177.733)" style="fill:#83442D;" width="1.238" height="5.753"/>
								</g>
							</g>
							<g>
								<g>
									<path style="fill:#E89400;" d="M126.163,230.458c-1.952-0.831-3.398-2.682-3.602-4.938c-0.175-1.923,0.6-3.818,2.071-5.071
										l0.801,0.942c-1.165,0.992-1.779,2.494-1.641,4.017c0.236,2.585,2.531,4.5,5.119,4.266
										c2.588-0.235,4.502-2.531,4.268-5.119c-0.235-2.586-2.531-4.502-5.119-4.266l-0.112-1.232
										c3.269-0.296,6.167,2.12,6.462,5.387c0.297,3.266-2.12,6.166-5.387,6.462C128.011,230.999,127.036,230.83,126.163,230.458z
										"/>
								</g>
							</g>
							<g>
								<g>
									<path style="fill:none;stroke:#E89400;stroke-miterlimit:10;" d="M125.301,220.706"/>
								</g>
							</g>
							<path style="fill:#A25943;" d="M117.629,235.799c10.781,18.832,34.353,14.959,37.818,0.003l-18.258-5.53L117.629,235.799z"/>
							<path d="M143.204,211.943c0,1.076-0.61,1.949-1.362,1.949c-0.752,0-1.362-0.872-1.362-1.949c0-1.076,0.61-1.949,1.362-1.949
								C142.595,209.994,143.204,210.867,143.204,211.943z"/>
						</g>
					</g>
				</g>
				<g>
					
						<ellipse transform="matrix(0.083 -0.9966 0.9966 0.083 126.7016 575.4484)" style="fill:#D5D7E3;" cx="376.031" cy="218.879" rx="37.019" ry="37.019"/>
					<g>
						<defs>
							
								<ellipse id="SVGID_00000054986559674560425270000008302387949231890306_" transform="matrix(0.083 -0.9966 0.9966 0.083 126.7016 575.4484)" cx="376.031" cy="218.879" rx="37.019" ry="37.019"/>
						</defs>
						<clipPath id="SVGID_00000067222441786270756720000008521409757443955332_">
							<use xlink:href="#SVGID_00000054986559674560425270000008302387949231890306_"  style="overflow:visible;"/>
						</clipPath>
						<g style="clip-path:url(#SVGID_00000067222441786270756720000008521409757443955332_);">
							<g>
								<path style="fill:#E4786B;" d="M369.206,246.172c2.194,18.662,11.913,28.673,22.376,42.667
									c2.141,2.864,5.701,4.29,9.225,3.681l0,0c6.265-1.082,9.715-7.899,6.876-13.589l-18.582-38.692
									c-1.101-2.206-2.892-3.883-5.022-4.868c-1.964-0.908-4.205-1.217-6.448-0.779
									C372.232,235.652,368.563,240.703,369.206,246.172z"/>
								<path style="fill:#FFFFFF;" d="M379.807,237.785l1.155-0.947c2.582-2.115,2.611-6.055,0.059-8.208l-4.007-3.381
									l-5.633,8.486L379.807,237.785z"/>
								<g>
									<g>
										<g>
											<g>
												<polygon style="fill:#D87456;" points="382.721,215.968 382.39,221.798 379.343,237.862 363.759,236.551 
													365.067,213.292 												"/>
											</g>
											<path d="M389.344,201.353c0,0,1.501-4.53,0.792-6.684c-0.546-1.661-4.452-6.081-4.452-6.081
												c-7.328,0.663-18.916,3.878-19.903,4.686c-0.987,0.807-4.906,7.718-6.701,10.36c-2.558,3.764-2.63,5.42,3.097,12.549
												c-1.38,2.99-0.604,5.549,2.343,6.846l1.653-15.876L389.344,201.353z"/>
											<g>
												<g>
													<path style="fill:#E2A183;" d="M382.353,226.137l-18.375,0.198l2.039-17.261c0.008-0.657,0.055-1.299,0.156-1.922
														c0.181-1.287,0.549-2.506,1.066-3.651c0.876-1.908,2.164-3.595,3.769-4.915c2.099-1.733,4.756-2.519,7.594-2.997
														c2.568-0.433,13.987,1.852,14.409,11.652c0.027,0.628,0.138,1.267,0.137,1.925l-0.02,6.266
														C393.107,221.361,388.282,226.158,382.353,226.137z"/>
												</g>
											</g>
											<g>
												<g>
													<path style="fill:#D87456;" d="M382.459,220.378c-0.68,0.117-1.477,0.08-2.176-0.278
														c-0.698-0.359-1.539-1.169-1.571-2.99l1.336-0.024c0.017,0.932,0.301,1.546,0.845,1.825
														c0.714,0.367,1.746,0.124,2.074-0.103l0.759,1.1C383.44,220.105,382.984,220.288,382.459,220.378z"/>
												</g>
											</g>
											<g>
												<g>
													<path d="M390.088,211.155c0.003,1.022-0.542,1.853-1.217,1.855c-0.675,0.002-1.225-0.825-1.229-1.848
														c-0.003-1.022,0.542-1.853,1.217-1.855C389.534,209.305,390.085,210.133,390.088,211.155z"/>
												</g>
											</g>
											<path d="M367.245,214.242c6.567-1.287,0.659-15.307,0.659-15.307s-7.052-2.115-5.372,14.634L367.245,214.242z"/>
											<g>
												<g>
													<path style="fill:#E2A183;" d="M369.684,214.784c-3.268-6.177-6.233-6.604-8.626-5.355
														c-2.977,1.553-3.126,7.223,0.224,9.845c2.929,2.293,7.287,0.475,8.102-3.155L369.684,214.784z"/>
												</g>
											</g>
											<g>
												<g>
													<path style="fill:#D87456;" d="M385.483,217.6c-0.247-0.001-0.497-0.029-0.748-0.084l0.238-1.084
														c1.201,0.258,2.073-0.386,2.489-1.078c0.411-0.685,0.569-1.746-0.219-2.669c-0.984-1.154-2.005-2.5-2.802-4.519
														l1.033-0.409c0.738,1.87,1.692,3.127,2.614,4.206c0.964,1.13,1.091,2.684,0.326,3.96
														C387.775,216.992,386.674,217.604,385.483,217.6z"/>
												</g>
											</g>
											<g>
												<g>
													
														<rect x="363.9" y="213.774" transform="matrix(0.7034 -0.7108 0.7108 0.7034 -45.1318 322.9969)" style="fill:#D87456;" width="1.11" height="3.604"/>
												</g>
											</g>
											<g>
												<g>
													<path d="M389.716,205.163c-3.123-0.393-3.075-2.084-0.639-2.143C391.698,202.956,393.602,205.652,389.716,205.163z"/>
												</g>
											</g>
											<g>
												<g>
													<path d="M378.095,204.994c-3.014,0.908-3.656-0.657-1.453-1.7C379.011,202.172,381.845,203.864,378.095,204.994z"/>
												</g>
											</g>
											<path d="M367.851,207.362c2.709,0.226,4.966-1.883,4.966-1.883l-0.114-7.618l-6.44,1.626L367.851,207.362z"/>
											<g>
												<g>
													<path d="M380.451,211.787c0.003,1.022-0.542,1.853-1.217,1.855c-0.675,0.002-1.225-0.825-1.229-1.848
														c-0.003-1.022,0.542-1.853,1.217-1.855C379.897,209.937,380.447,210.764,380.451,211.787z"/>
												</g>
											</g>
										</g>
										<polygon points="370.488,202.48 370.608,214.124 367.555,214.554 365.519,205.372 										"/>
										<path d="M368.474,199.876l13.363-3.11C375.669,191.752,368.544,195.977,368.474,199.876z"/>
										<path d="M377.135,195.871c6.211,6.266,12.033,0.891,12.033,0.891C385.546,191.171,377.135,195.871,377.135,195.871z"/>
									</g>
									<path style="fill:#E4786B;" d="M396.347,295.364l-32.009,3.904l-0.903,0.248l-0.459,0.034l-7.533,2.102
										c0,0-1.586-10.711-4.927-26.233c-1.478-6.923-4.103-14.254-3.6-22.241c1.349-21.004,17.178-24.639,16.365-23.557
										l20.122,9.051c1.122,2.301,3.362,6.578,5.416,11.888c0.16,0.395,0.313,0.814,0.453,1.223
										c0.468,1.402,0.863,2.849,1.109,4.352c0.074,0.419,0.139,0.862,0.16,1.312c0.084,0.644,0.127,1.317,0.134,1.972
										c0.036,3.911-1.08,7.993-4.219,11.944l0.104,0.245l0.019,0.054L396.347,295.364z"/>
									<polygon style="fill:#FFFFFF;" points="373.371,234.048 362.584,229.499 383.89,256.647 380.207,237.234 									"/>
									<path style="fill:#E4786B;" d="M396.347,295.363l-13.843,1.788l-21.701,2.807c-0.249-1.234-0.544-2.78-0.878-4.551
										l-0.002-0.014c-2.178-11.809-5.72-33.862-5.421-42.578l3.93,2.429l0.001,0.007l19.127,11.838l11.759-6.349L396.347,295.363
										z"/>
								</g>
								<polygon points="374.762,234.632 373.478,235.452 371.052,238.086 375.981,240.414 375.08,245.421 384.468,257.383 
									381.106,242.136 377.929,239.708 378.05,236.229 								"/>
								<path style="fill:#FFFFFF;" d="M371.404,240.737l2.372-3.407c2.815-4.044,1.19-9.839-3.461-11.466
									c-0.209-0.073-0.422-0.138-0.639-0.195l-6.337-1.659l-2.307,5.968L371.404,240.737z"/>
							</g>
						</g>
					</g>
				</g>
				<g>
					<g>
						<path style="opacity:0.3;fill:#C5C8D8;" d="M214.141,364.825h80.404c5.035,0,9.117-4.082,9.117-9.117l0,0
							c0-5.035-4.082-9.117-9.117-9.117h-80.404c-5.035,0-9.117,4.082-9.117,9.117l0,0
							C205.023,360.743,209.105,364.825,214.141,364.825z"/>
						<path style="fill:#FFFFFF;stroke:#F0F1F5;stroke-miterlimit:10;" d="M221.94,359.032h80.404c5.035,0,9.117-4.082,9.117-9.117
							l0,0c0-5.035-4.082-9.117-9.117-9.117H221.94c-5.035,0-9.117,4.082-9.117,9.117l0,0
							C212.823,354.949,216.905,359.032,221.94,359.032z"/>
						<g>
							<polygon style="fill:#FFB72F;" points="230.723,343.953 232.357,347.265 236.013,347.796 233.368,350.374 233.992,354.014 
								230.723,352.295 227.454,354.014 228.078,350.374 225.433,347.796 229.088,347.265 							"/>
							<polygon style="fill:#FFB72F;" points="246.432,343.953 248.067,347.265 251.722,347.796 249.077,350.374 249.702,354.014 
								246.432,352.295 243.163,354.014 243.788,350.374 241.143,347.796 244.798,347.265 							"/>
							<polygon style="fill:#FFB72F;" points="262.142,343.953 263.777,347.265 267.432,347.796 264.787,350.374 265.411,354.014 
								262.142,352.295 258.873,354.014 259.497,350.374 256.853,347.796 260.508,347.265 							"/>
							<polygon style="fill:#FFB72F;" points="277.852,343.953 279.486,347.265 283.141,347.796 280.496,350.374 281.121,354.014 
								277.852,352.295 274.582,354.014 275.207,350.374 272.562,347.796 276.217,347.265 							"/>
							<polygon style="fill:#D5D7E3;" points="293.561,343.953 295.196,347.265 298.851,347.796 296.206,350.374 296.83,354.014 
								293.561,352.295 290.292,354.014 290.916,350.374 288.272,347.796 291.927,347.265 							"/>
							<polygon style="fill:#FFB72F;" points="293.56,343.951 293.56,352.291 290.292,354.013 290.916,350.374 288.272,347.795 
								291.931,347.264 							"/>
						</g>
					</g>
					<g>
						<path style="opacity:0.3;fill:#C5C8D8;" d="M93.418,364.825h80.404c5.035,0,9.117-4.082,9.117-9.117l0,0
							c0-5.035-4.082-9.117-9.117-9.117H93.418c-5.035,0-9.117,4.082-9.117,9.117l0,0C84.301,360.743,88.383,364.825,93.418,364.825
							z"/>
						<path style="fill:#FFFFFF;stroke:#F0F1F5;stroke-miterlimit:10;" d="M101.218,359.032h80.404c5.035,0,9.117-4.082,9.117-9.117
							l0,0c0-5.035-4.082-9.117-9.117-9.117h-80.404c-5.035,0-9.117,4.082-9.117,9.117l0,0
							C92.1,354.949,96.182,359.032,101.218,359.032z"/>
						<g>
							<polygon style="fill:#FFB72F;" points="110.001,343.953 111.635,347.265 115.29,347.796 112.645,350.374 113.27,354.014 
								110.001,352.295 106.731,354.014 107.356,350.374 104.711,347.796 108.366,347.265 							"/>
							<polygon style="fill:#FFB72F;" points="125.71,343.953 127.345,347.265 131,347.796 128.355,350.374 128.979,354.014 
								125.71,352.295 122.441,354.014 123.065,350.374 120.42,347.796 124.076,347.265 							"/>
							<polygon style="fill:#D5D7E3;" points="141.42,343.953 143.054,347.265 146.709,347.796 144.064,350.374 144.689,354.014 
								141.42,352.295 138.151,354.014 138.775,350.374 136.13,347.796 139.785,347.265 							"/>
							<polygon style="fill:#D5D7E3;" points="157.129,343.953 158.764,347.265 162.419,347.796 159.774,350.374 160.398,354.014 
								157.129,352.295 153.86,354.014 154.484,350.374 151.84,347.796 155.495,347.265 							"/>
							<polygon style="fill:#D5D7E3;" points="172.839,343.953 174.473,347.265 178.128,347.796 175.483,350.374 176.108,354.014 
								172.839,352.295 169.57,354.014 170.194,350.374 167.549,347.796 171.204,347.265 							"/>
						</g>
					</g>
					<g>
						<path style="opacity:0.3;fill:#C5C8D8;" d="M332.907,364.825h80.404c5.035,0,9.117-4.082,9.117-9.117l0,0
							c0-5.035-4.082-9.117-9.117-9.117h-80.404c-5.035,0-9.117,4.082-9.117,9.117l0,0
							C323.79,360.743,327.872,364.825,332.907,364.825z"/>
						<path style="fill:#FFFFFF;stroke:#F0F1F5;stroke-miterlimit:10;" d="M340.707,359.032h80.404c5.035,0,9.117-4.082,9.117-9.117
							l0,0c0-5.035-4.082-9.117-9.117-9.117h-80.404c-5.035,0-9.117,4.082-9.117,9.117l0,0
							C331.589,354.949,335.671,359.032,340.707,359.032z"/>
						<g>
							<polygon style="fill:#FFB72F;" points="349.49,343.953 351.124,347.265 354.779,347.796 352.134,350.374 352.759,354.014 
								349.49,352.295 346.22,354.014 346.845,350.374 344.2,347.796 347.855,347.265 							"/>
							<polygon style="fill:#FFB72F;" points="365.199,343.953 366.834,347.265 370.489,347.796 367.844,350.374 368.468,354.014 
								365.199,352.295 361.93,354.014 362.554,350.374 359.91,347.796 363.565,347.265 							"/>
							<polygon style="fill:#FFB72F;" points="380.909,343.953 382.543,347.265 386.198,347.796 383.553,350.374 384.178,354.014 
								380.909,352.295 377.64,354.014 378.264,350.374 375.619,347.796 379.274,347.265 							"/>
							<polygon style="fill:#D5D7E3;" points="396.618,343.953 398.253,347.265 401.908,347.796 399.263,350.374 399.887,354.014 
								396.618,352.295 393.349,354.014 393.973,350.374 391.329,347.796 394.984,347.265 							"/>
							<polygon style="fill:#D5D7E3;" points="412.328,343.953 413.962,347.265 417.617,347.796 414.973,350.374 415.597,354.014 
								412.328,352.295 409.059,354.014 409.683,350.374 407.038,347.796 410.693,347.265 							"/>
						</g>
					</g>
				</g>
				<g>
					<g>
						
							<ellipse transform="matrix(0.7071 -0.7071 0.7071 0.7071 -149.3269 289.9813)" style="fill:#EAA105;" cx="275.375" cy="325.244" rx="10.523" ry="10.523"/>
						<g>
							
								<polyline style="fill:none;stroke:#FFFFFF;stroke-width:2;stroke-linecap:round;stroke-linejoin:round;stroke-miterlimit:10;" points="
								270.54,325.244 274.198,329.112 280.21,321.376 							"/>
						</g>
					</g>
					<g>
						<path style="fill:#C43F00;" d="M247.407,317.803c4.109,4.109,4.109,10.772,0,14.882c-4.109,4.109-10.772,4.109-14.882,0
							c-4.109-4.109-4.109-10.772,0-14.882C236.635,313.694,243.297,313.694,247.407,317.803z"/>
						<g>
							
								<line style="fill:none;stroke:#FFFFFF;stroke-width:2;stroke-linecap:round;stroke-linejoin:round;stroke-miterlimit:10;" x1="236.547" y1="321.825" x2="243.385" y2="328.663"/>
							
								<line style="fill:none;stroke:#FFFFFF;stroke-width:2;stroke-linecap:round;stroke-linejoin:round;stroke-miterlimit:10;" x1="236.547" y1="328.663" x2="243.385" y2="321.825"/>
						</g>
					</g>
				</g>
				<g>
					<g>
						
							<ellipse transform="matrix(0.2308 -0.973 0.973 0.2308 -196.8236 401.5177)" style="fill:#EAA105;" cx="155.537" cy="325.244" rx="10.523" ry="10.523"/>
						<g>
							
								<polyline style="fill:none;stroke:#FFFFFF;stroke-width:2;stroke-linecap:round;stroke-linejoin:round;stroke-miterlimit:10;" points="
								150.702,325.244 154.36,329.112 160.372,321.376 							"/>
						</g>
					</g>
					<g>
						<path style="fill:#C43F00;" d="M127.569,317.803c4.109,4.109,4.109,10.772,0,14.882c-4.109,4.109-10.772,4.109-14.882,0
							c-4.109-4.109-4.109-10.772,0-14.882C116.796,313.694,123.459,313.694,127.569,317.803z"/>
						<g>
							
								<line style="fill:none;stroke:#FFFFFF;stroke-width:2;stroke-linecap:round;stroke-linejoin:round;stroke-miterlimit:10;" x1="116.709" y1="321.825" x2="123.547" y2="328.663"/>
							
								<line style="fill:none;stroke:#FFFFFF;stroke-width:2;stroke-linecap:round;stroke-linejoin:round;stroke-miterlimit:10;" x1="116.709" y1="328.663" x2="123.547" y2="321.825"/>
						</g>
					</g>
				</g>
				<g>
					<g>
						
							<ellipse transform="matrix(0.2308 -0.973 0.973 0.2308 -13.5994 633.2858)" style="fill:#EAA105;" cx="393.735" cy="325.244" rx="10.523" ry="10.523"/>
						<g>
							
								<polyline style="fill:none;stroke:#FFFFFF;stroke-width:2;stroke-linecap:round;stroke-linejoin:round;stroke-miterlimit:10;" points="
								388.9,325.244 392.559,329.112 398.571,321.376 							"/>
						</g>
					</g>
					<g>
						<path style="fill:#C43F00;" d="M365.767,317.803c4.109,4.109,4.109,10.772,0,14.882c-4.109,4.109-10.772,4.109-14.882,0
							c-4.109-4.109-4.109-10.772,0-14.882C354.995,313.694,361.658,313.694,365.767,317.803z"/>
						<g>
							
								<line style="fill:none;stroke:#FFFFFF;stroke-width:2;stroke-linecap:round;stroke-linejoin:round;stroke-miterlimit:10;" x1="354.908" y1="321.825" x2="361.746" y2="328.663"/>
							
								<line style="fill:none;stroke:#FFFFFF;stroke-width:2;stroke-linecap:round;stroke-linejoin:round;stroke-miterlimit:10;" x1="354.908" y1="328.663" x2="361.746" y2="321.825"/>
						</g>
					</g>
				</g>
			</g>
		</g>
	</g>
	<g>
		<g>
			<line style="fill:none;stroke:#719D61;stroke-miterlimit:10;" x1="90.142" y1="442.587" x2="78.509" y2="360.587"/>
			<path style="fill:#558657;" d="M79.3,367.591l2.679-25.248l51.175-80.138C155.573,346.689,106.79,337.194,79.3,367.591z"/>
			<path style="fill:#659D67;" d="M79.3,367.591c-16.055-36.709,29.488-69.069,53.854-105.386
				C150.272,326.746,84.911,320.306,79.3,367.591z"/>
			<g>
				<path style="fill:none;stroke:#719D61;stroke-miterlimit:10;" d="M107.266,444.766c0-70.164,16.717-84.929,16.717-84.929"/>
				<path style="fill:#558657;" d="M113.947,381.507c10.816-16.602,83.134,10.327,87.313-75.788
					C162.632,329.731,127.143,325.553,113.947,381.507z"/>
				<path style="fill:#659D67;" d="M113.947,381.507c14.994-33.298,63.301-28.82,87.313-75.788
					C162.632,329.731,127.143,325.553,113.947,381.507z"/>
			</g>
		</g>
		<path style="fill:#FFFFFF;stroke:#C5C8D8;stroke-miterlimit:10;" d="M132.158,392.71v48.941c0,8.102-6.572,14.662-14.674,14.662
			H71.981c-8.102,0-14.674-6.559-14.674-14.662V392.71H132.158z"/>
		<path style="fill:#E1E2EA;" d="M132.158,392.71v48.941c0,8.102-6.572,14.662-14.674,14.662H73.657
			c17.042-9.135,29.578-32.676,41.228-63.603H132.158z"/>
	</g>
	<g>
		<line style="fill:none;stroke:#241816;stroke-miterlimit:10;" x1="56.255" y1="456.31" x2="473.951" y2="456.31"/>
		<line style="fill:none;stroke:#241816;stroke-miterlimit:10;" x1="46.685" y1="456.31" x2="26.443" y2="456.31"/>
	</g>
	<g>
		<path style="opacity:0.3;fill:#D5D7E3;" d="M329.145,376.353l-41.005-89.737l1.601-0.685c2.456-1.051,3.595-3.893,2.544-6.348v0
			c-0.713-1.667-2.256-2.706-3.939-2.886c1.228-0.86,2.438-1.759,3.619-2.717c2.569-1.703,5.055-3.596,7.424-5.704
			c27.033-24.053,29.448-65.445,5.394-92.478c-24.044-27.023-65.445-29.447-92.478-5.394c-9.098,8.095-15.394,18.163-18.843,28.983
			c-9.435,21.984-6.033,48.392,10.918,67.443c16.205,18.213,40.515,24.908,62.652,19.517c-0.638,1.238-0.759,2.73-0.168,4.11
			c1.05,2.456,3.893,3.595,6.348,2.544l3.692-1.579l41.129,90.008c0.941,2.06,3.375,2.967,5.435,2.026l3.65-1.668
			C329.18,380.847,330.086,378.413,329.145,376.353z"/>
		<g>
			
				<ellipse transform="matrix(0.1375 -0.9905 0.9905 0.1375 24.7269 440.9388)" style="fill:#D5D7E3;" cx="265.562" cy="206.271" rx="62.039" ry="62.038"/>
			<g>
				<defs>
					
						<ellipse id="SVGID_00000032648064933662881030000002268487601329893273_" transform="matrix(0.1375 -0.9905 0.9905 0.1375 24.7269 440.9388)" cx="265.562" cy="206.271" rx="62.039" ry="62.038"/>
				</defs>
				<clipPath id="SVGID_00000165939231369611706080000004657066748734480314_">
					<use xlink:href="#SVGID_00000032648064933662881030000002268487601329893273_"  style="overflow:visible;"/>
				</clipPath>
				<g style="clip-path:url(#SVGID_00000165939231369611706080000004657066748734480314_);">
					<path d="M278.087,220.685c9.095,0.623,21.368-4.743,21.368-4.743s-1.435-31.915-4.045-42.663
						c-2.756-11.346-32.855-24.77-44.596-5.559L278.087,220.685z"/>
					<path style="fill:#530046;" d="M300.946,244.682l-10.797,26.12l-0.24,3.908l-0.429,6.941l-0.326,5.45l-0.445,7.318
						l-0.514,8.261h-51.743l-0.051-0.463l-1.354-15.802l-4.456-52.051l-0.377-4.285l2.622-0.703l5.484-1.457l5.81-1.56l1.2-0.326
						l31.004-2.519l6.582,2.074l2.965,0.926c0,0.017,0,0.017,0,0.017l8.535,2.434l0.103,0.257L300.946,244.682z"/>
					<path style="fill:#D77347;" d="M294.417,228.965c-1.817,7.815-3.414,18.673-3.414,18.673
						c-10.914-11.254-46.864,2.233-46.864,2.233s1.689-5.19,0.746-6.115c-3.839-3.788-7.867-8.535-12.049-14.38
						c-0.086-0.137-0.189-0.274-0.291-0.411l0.394-0.103l0.566-0.154l10.506-2.982l20.532-5.81l18.356,5.57L294.417,228.965z"/>
					<g>
						<g>
							<path style="fill:#D77347;" d="M272.726,238.654l-21.447,0.685l-1.162-36.377l29.183-0.932l0.915,28.64
								C280.352,234.943,276.999,238.518,272.726,238.654z"/>
						</g>
					</g>
					<g>
						<g>
							<path style="fill:#B54A12;" d="M279.929,221.679c-11.368,3.034-21.302-2.192-20.493-23.019v0l19.813-0.633L279.929,221.679z"
								/>
						</g>
					</g>
					<g>
						<g>
							<path style="fill:#D77347;" d="M270.025,163.2L270.025,163.2c12.57-1.14,23.684,8.126,24.824,20.696l0.593,6.541
								c1.102,12.148-7.853,22.889-20.001,23.991l-9.261,0.84c-7.877,0.714-14.842-5.092-15.556-12.969l-1.295-14.274
								C248.19,175.454,257.455,164.34,270.025,163.2z"/>
							<path d="M254.78,202.814l2.357,17.995c0,0-14.29,3.005-22.687-3.096c-0.086-14.453,1.099-36.584,5.449-45.904
								c1.933-4.141,11.473-9.371,21.704-8.427L254.78,202.814z"/>
						</g>
					</g>
					<ellipse cx="287.919" cy="188.766" rx="2.228" ry="3.188"/>
					<g>
						<g>
							<path style="fill:#D77347;" d="M258.174,197.095c-5.383-10.475-10.37-11.255-14.429-9.198
								c-7.439,3.769-4.478,24.585,12.315,16.37L258.174,197.095z"/>
						</g>
					</g>
					<g>
						<g>
							<path d="M287.409,176.807c-5.305-0.07-5.542-2.911-1.473-3.469C290.312,172.737,294.009,176.894,287.409,176.807z"/>
						</g>
					</g>
					<g>
						<g>
							<path d="M269.16,178.393c-5.219,0.952-5.998-1.79-2.113-3.121C271.226,173.841,275.654,177.208,269.16,178.393z"/>
						</g>
					</g>
					<g>
						<g>
							<path style="fill:#FDFAF7;" d="M281.078,201.49c-1.583-0.321-4.175-0.595-7.676-0.141c-0.969,0.126-1.504,1.245-0.956,2.054
								c4.03,5.951,7.715,2.525,9.433,0.2C282.466,202.807,282.046,201.686,281.078,201.49z"/>
						</g>
					</g>
					<g>
						<g>
							<path style="fill:#B54A12;" d="M282.099,200.232l0.246-2.008c2.017,0.247,3.353-0.953,3.93-2.159
								c0.569-1.19,0.666-2.959-0.772-4.353c-1.839-1.786-3.768-3.89-5.43-7.164l1.805-0.915c1.526,3.01,3.321,4.965,5.034,6.626
								c1.819,1.765,2.285,4.386,1.188,6.678C286.993,199.25,284.638,200.542,282.099,200.232z"/>
						</g>
					</g>
					<g>
						<g>
							
								<rect x="247.408" y="192.588" transform="matrix(0.6339 -0.7734 0.7734 0.6339 -61.6399 264.3781)" style="fill:#B54A12;" width="2.025" height="9.412"/>
						</g>
					</g>
					<g>
						<g>
							<path style="fill:none;stroke:#E89400;stroke-miterlimit:10;" d="M245.099,204.268"/>
						</g>
					</g>
					<ellipse cx="272.16" cy="189.932" rx="2.228" ry="3.188"/>
					<path d="M317.469,279.2l-27.988,2.451l-5.193,0.446l-40.774,3.582l-8.467,0.737l-19.693,1.731
						c-0.068-19.247,0.96-36.746,1.748-43.807c1.097-9.769,9.547-13.78,15.442-15.374l0.394-0.103l0.566-0.154l10.506-2.982
						l6.757-1.912l6.268,35.262c1.028,5.783,0.435,11.737-1.712,17.204l-1.578,4.017l31.296-2.108l0,0
						c5.362-8.139,6.698-18.285,3.627-27.535l-8.646-26.04l2.877,0.873l11.517,3.479l0.103,0.257l0.052-0.257
						C308.573,235.924,314.949,263.672,317.469,279.2z"/>
					<path d="M252.702,182.888c13.708-0.463,14.556-19.437,14.556-19.437S250.109,159.029,252.702,182.888z"/>
					<path d="M267.258,163.451c10.621,1.042,22.86,9.939,27.34,17.677C292.844,160.299,276.589,158.441,267.258,163.451z"/>
				</g>
			</g>
			<g>
				<g>
					<g>
						<path d="M348.282,360.867l-5.37,2.843c-1.499,0.793-3.357,0.222-4.15-1.277l-51.922-98.079
							c-0.793-1.498-0.222-3.356,1.277-4.15l5.37-2.844c1.499-0.794,3.357-0.222,4.15,1.277l51.922,98.079
							C350.352,358.216,349.78,360.074,348.282,360.867z"/>
					</g>
					<g>
						<g>
							<path style="fill:#9BA0BD;" d="M218.146,163.739c-24.848,24.848-24.848,65.148,0,89.996
								c24.857,24.858,65.148,24.848,89.996,0c24.857-24.857,27.448-68.538,2.59-93.395
								C285.883,135.491,243.003,138.881,218.146,163.739z M309.102,248.308c-23.608,23.608-61.901,23.608-85.52-0.01
								c-23.608-23.608-23.608-61.901,0-85.509c23.619-23.618,61.912-23.618,85.52-0.01
								C332.72,186.396,332.72,224.689,309.102,248.308z"/>
							<path style="fill:#9BA0BD;" d="M287.296,276.396l18.266-9.106c1.789-0.892,2.517-3.065,1.625-4.855l-1.085-2.177
								c-0.892-1.789-3.065-2.517-4.855-1.625l-18.266,9.106c-1.789,0.892-2.517,3.065-1.625,4.854l1.085,2.177
								C283.334,276.56,285.507,277.288,287.296,276.396z"/>
							<path style="fill:#B0B4CB;" d="M291.001,274.549l14.561-7.259c1.789-0.892,2.517-3.065,1.625-4.855l-1.085-2.177
								c-0.892-1.789-3.065-2.517-4.855-1.625l-14.561,7.259c-1.789,0.892-2.517,3.065-1.625,4.855l1.085,2.177
								C287.038,274.713,289.212,275.441,291.001,274.549z"/>
							<path style="opacity:0.3;fill:#FFFFFF;" d="M306.385,163.702c23.002,23.002,23.452,61.202,0.45,84.204
								c-22.992,22.992-60.736,22.086-83.738-0.916c-22.992-22.992-22.992-60.286,0-83.278
								C246.1,140.711,283.393,140.711,306.385,163.702z"/>
							<g>
								<defs>
									<path id="SVGID_00000165220721256141586460000015713292544333563819_" d="M306.385,163.702
										c23.002,23.002,23.502,61.156,0.5,84.158c-22.992,22.992-60.786,22.132-83.788-0.871
										c-22.992-22.992-22.992-60.286,0-83.278C246.1,140.711,283.393,140.711,306.385,163.702z"/>
								</defs>
								<clipPath id="SVGID_00000100381117828495707690000015806211789438737288_">
									<use xlink:href="#SVGID_00000165220721256141586460000015713292544333563819_"  style="overflow:visible;"/>
								</clipPath>
								<g style="clip-path:url(#SVGID_00000100381117828495707690000015806211789438737288_);">
									
										<linearGradient id="SVGID_00000007407805109485182230000006119903955096472728_" gradientUnits="userSpaceOnUse" x1="377.6235" y1="134.7944" x2="282.1102" y2="226.8693" gradientTransform="matrix(-1 0 0 1 562.4274 0)">
										<stop  offset="0" style="stop-color:#FFFFFF"/>
										<stop  offset="1" style="stop-color:#FFFFFF;stop-opacity:0"/>
									</linearGradient>
									<polygon style="fill:url(#SVGID_00000007407805109485182230000006119903955096472728_);" points="333.125,257.263 
										309.922,280.466 183.684,154.229 206.888,131.025 									"/>
									
										<linearGradient id="SVGID_00000094589969789421902920000001490767286956018842_" gradientUnits="userSpaceOnUse" x1="402.1697" y1="160.2573" x2="306.6564" y2="252.3321" gradientTransform="matrix(-1 0 0 1 562.4274 0)">
										<stop  offset="0" style="stop-color:#FFFFFF"/>
										<stop  offset="1" style="stop-color:#FFFFFF;stop-opacity:0"/>
									</linearGradient>
									<polygon style="fill:url(#SVGID_00000094589969789421902920000001490767286956018842_);" points="303.413,286.974 
										289.608,300.78 163.37,174.543 177.176,160.737 									"/>
									
										<linearGradient id="SVGID_00000062157285405479953070000009870424342929361589_" gradientUnits="userSpaceOnUse" x1="213.7669" y1="242.8112" x2="280.6262" y2="172.5134" gradientTransform="matrix(-1 0 0 1 562.4274 0)">
										<stop  offset="0" style="stop-color:#FFFFFF"/>
										<stop  offset="1" style="stop-color:#FFFFFF;stop-opacity:0"/>
									</linearGradient>
									<polygon style="fill:url(#SVGID_00000062157285405479953070000009870424342929361589_);" points="356.617,233.77 
										342.812,247.576 216.574,121.339 230.38,107.533 									"/>
								</g>
							</g>
							<path style="fill:#D5D7E3;" d="M220.442,157.01c-25.577,25.577-25.577,67.058,0,92.635c25.587,25.587,67.058,25.577,92.636,0
								c25.586-25.587,25.586-67.049,0-92.636C287.501,131.433,246.029,131.423,220.442,157.01z M309.146,245.714
								c-23.399,23.399-61.352,23.399-84.762-0.01c-23.399-23.399-23.399-61.352,0-84.751c23.409-23.409,61.363-23.409,84.762-0.01
								C332.555,184.351,332.555,222.304,309.146,245.714z"/>
						</g>
					</g>
				</g>
			</g>
		</g>
	</g>
	<g>
		<path style="opacity:0.3;fill:#D5D7E3;" d="M418.872,68.636H269.237c-4.186,0-7.579,3.393-7.579,7.579v78.147l28.1-18.038h129.114
			c4.186,0,7.579-3.393,7.579-7.579v-52.53C426.451,72.029,423.058,68.636,418.872,68.636z"/>
		<g>
			<path style="fill:#FFFFFF;stroke:#C5C8D8;stroke-miterlimit:10;" d="M425.124,61.336H275.489c-4.186,0-7.579,3.393-7.579,7.579
				v76.305l26.649-16.196h130.565c4.186,0,7.579-3.393,7.579-7.579v-52.53C432.703,64.729,429.31,61.336,425.124,61.336z"/>
			<g>
				<path style="fill:#F0F1F5;" d="M287.509,70.89h-4.885c-2.395,0-4.337,1.942-4.337,4.337v4.885c0,2.395,1.942,4.337,4.337,4.337
					h4.885c2.395,0,4.337-1.942,4.337-4.337v-4.885C291.846,72.832,289.904,70.89,287.509,70.89z"/>
				<path style="fill:#F0F1F5;" d="M287.509,88.92h-4.885c-2.395,0-4.337,1.942-4.337,4.337v4.885c0,2.395,1.942,4.337,4.337,4.337
					h4.885c2.395,0,4.337-1.942,4.337-4.337v-4.885C291.846,90.862,289.904,88.92,287.509,88.92z"/>
				<path style="fill:#F0F1F5;" d="M287.509,106.95h-4.885c-2.395,0-4.337,1.942-4.337,4.337v4.885c0,2.395,1.942,4.337,4.337,4.337
					h4.885c2.395,0,4.337-1.942,4.337-4.337v-4.885C291.846,108.892,289.904,106.95,287.509,106.95z"/>
				
					<line style="fill:none;stroke:#E1E2EA;stroke-width:5;stroke-linecap:round;stroke-linejoin:round;stroke-miterlimit:10;" x1="300.104" y1="77.67" x2="419.239" y2="77.67"/>
				
					<line style="fill:none;stroke:#E1E2EA;stroke-width:5;stroke-linecap:round;stroke-linejoin:round;stroke-miterlimit:10;" x1="300.104" y1="95.7" x2="419.239" y2="95.7"/>
				
					<line style="fill:none;stroke:#E1E2EA;stroke-width:5;stroke-linecap:round;stroke-linejoin:round;stroke-miterlimit:10;" x1="300.104" y1="113.73" x2="419.239" y2="113.73"/>
				<polyline style="fill:none;stroke:#C43F00;stroke-width:2;stroke-miterlimit:10;" points="280.214,74.65 285.399,80.382 
					294.559,68.919 				"/>
				<polyline style="fill:none;stroke:#EAA105;stroke-width:2;stroke-miterlimit:10;" points="280.214,92.91 285.399,98.641 
					294.559,87.178 				"/>
				<polyline style="fill:none;stroke:#659D67;stroke-width:2;stroke-miterlimit:10;" points="280.214,111.461 285.399,117.193 
					294.559,105.729 				"/>
			</g>
		</g>
	</g>
	<g>
		<path style="opacity:0.3;fill:#D5D7E3;" d="M120.523,79.711h78.357c2.804,0,5.077,2.273,5.077,5.077v89.763l10.379,12.344h-93.812
			c-2.804,0-5.077-2.273-5.077-5.077V84.788C115.446,81.984,117.719,79.711,120.523,79.711z"/>
		<path style="fill:#FFFFFF;stroke:#C5C8D8;stroke-miterlimit:10;" d="M128.146,70.305h78.357c2.804,0,5.077,2.273,5.077,5.077v90.3
			l8.073,11.807h-91.506c-2.804,0-5.077-2.273-5.077-5.077V75.382C123.07,72.578,125.343,70.305,128.146,70.305z"/>
		<g>
			
				<line style="fill:none;stroke:#E1E2EA;stroke-width:5;stroke-linecap:round;stroke-linejoin:round;stroke-miterlimit:10;" x1="200.264" y1="91.731" x2="178.546" y2="91.731"/>
			
				<line style="fill:none;stroke:#E1E2EA;stroke-width:5;stroke-linecap:round;stroke-linejoin:round;stroke-miterlimit:10;" x1="200.264" y1="103.69" x2="178.546" y2="103.69"/>
			
				<line style="fill:none;stroke:#E1E2EA;stroke-width:5;stroke-linecap:round;stroke-linejoin:round;stroke-miterlimit:10;" x1="200.264" y1="128.275" x2="135.274" y2="128.275"/>
			
				<line style="fill:none;stroke:#E1E2EA;stroke-width:5;stroke-linecap:round;stroke-linejoin:round;stroke-miterlimit:10;" x1="200.264" y1="140.744" x2="135.274" y2="140.744"/>
			
				<line style="fill:none;stroke:#E1E2EA;stroke-width:5;stroke-linecap:round;stroke-linejoin:round;stroke-miterlimit:10;" x1="200.264" y1="153.213" x2="135.274" y2="153.213"/>
			
				<line style="fill:none;stroke:#E1E2EA;stroke-width:5;stroke-linecap:round;stroke-linejoin:round;stroke-miterlimit:10;" x1="200.264" y1="165.682" x2="172.507" y2="165.682"/>
		</g>
		<circle style="fill:#E1E2EA;" cx="149.756" cy="99.571" r="19.725"/>
		<g>
			<defs>
				<circle id="SVGID_00000182494039875957043800000014217250557038584494_" cx="149.756" cy="99.571" r="19.725"/>
			</defs>
			<clipPath id="SVGID_00000157294084233048377100000003881306437078730400_">
				<use xlink:href="#SVGID_00000182494039875957043800000014217250557038584494_"  style="overflow:visible;"/>
			</clipPath>
			<g style="clip-path:url(#SVGID_00000157294084233048377100000003881306437078730400_);">
				<path d="M153.738,104.154c2.892,0.198,6.794-1.508,6.794-1.508s-0.456-10.147-1.286-13.565
					c-0.876-3.607-10.446-7.876-14.179-1.767L153.738,104.154z"/>
				<path style="fill:#530046;" d="M161.006,111.784l-3.433,8.305l-0.076,1.242l-0.136,2.207l-0.104,1.733l-0.142,2.327
					l-0.164,2.627H140.5l-0.016-0.147l-0.43-5.024l-1.417-16.549l-0.12-1.362l0.834-0.223l1.744-0.463l1.847-0.496l0.381-0.104
					l9.858-0.801l2.092,0.659l0.943,0.294c0,0.005,0,0.005,0,0.005l2.714,0.774l0.033,0.082L161.006,111.784z"/>
				<path style="fill:#FFFFFF;" d="M158.93,106.786c-0.578,2.485-1.085,5.937-1.085,5.937c-3.47-3.578-14.9,0.71-14.9,0.71
					s0.537-1.65,0.237-1.944c-1.221-1.204-2.501-2.714-3.831-4.572c-0.027-0.044-0.06-0.087-0.093-0.131l0.125-0.033l0.18-0.049
					l3.34-0.948l6.528-1.847l5.836,1.771L158.93,106.786z"/>
				<g>
					<g>
						<path style="fill:#FFFFFF;" d="M154.399,106.825c0.01,0.413-0.01,0.826-0.077,1.229h-9.172l-0.307-9.537l9.278-0.298
							L154.399,106.825z"/>
					</g>
				</g>
				<g>
					<g>
						<path style="fill:#FFFFFF;" d="M151.175,85.877L151.175,85.877c3.997-0.362,7.53,2.584,7.893,6.58l0.189,2.08
							c0.35,3.862-2.497,7.277-6.359,7.628l-2.945,0.267c-2.505,0.227-4.719-1.619-4.946-4.123l-0.412-4.538
							C144.232,89.773,147.178,86.239,151.175,85.877z"/>
						<path d="M146.328,98.472l0.749,5.721c0,0-4.544,0.955-7.213-0.984c-0.027-4.595,0.35-11.632,1.733-14.595
							c0.615-1.316,3.648-2.979,6.901-2.679L146.328,98.472z"/>
					</g>
				</g>
				<g>
					<g>
						<path style="fill:#FFFFFF;" d="M147.407,96.654c-1.712-3.331-3.297-3.578-4.588-2.924c-2.365,1.198-1.424,7.817,3.915,5.205
							L147.407,96.654z"/>
					</g>
				</g>
				<g>
					<g>
						<path style="fill:none;stroke:#E89400;stroke-miterlimit:10;" d="M143.25,98.934"/>
					</g>
				</g>
				<path d="M166.259,122.758l-8.899,0.779l-1.651,0.142l-12.964,1.139l-2.692,0.234l-6.261,0.55
					c-0.022-6.12,0.305-11.683,0.556-13.928c0.349-3.106,3.035-4.381,4.91-4.888l0.125-0.033l0.18-0.049l3.34-0.948l2.148-0.608
					l1.993,11.211c0.327,1.839,0.138,3.732-0.544,5.47l-0.502,1.277l9.95-0.67l0,0c1.705-2.588,2.13-5.814,1.153-8.755l-2.749-8.279
					l0.915,0.278l3.662,1.106l0.033,0.082l0.016-0.082C163.431,108.999,165.458,117.821,166.259,122.758z"/>
				<path d="M145.667,92.136c4.358-0.147,4.628-6.18,4.628-6.18S144.843,84.55,145.667,92.136z"/>
				<path d="M150.295,85.956c3.377,0.332,7.268,3.16,8.693,5.621C158.43,84.954,153.262,84.364,150.295,85.956z"/>
			</g>
		</g>
	</g>
</g>
</svg>
